<svg height="500pt" preserveAspectRatio="xMidYMid meet" viewBox="0 0 500 500" width="500pt" xmlns="http://www.w3.org/2000/svg"><g transform="matrix(.1 0 0 -.1 0 500)"><path d="m1060 4370c-8-15-6-21 9-30 26-14 29-13 40 9 8 15 6 20-14 29-21 10-26 8-35-8z"/><path d="m3125 4367c-4-16-3-38 3-50 10-20 42-228 42-269 0-15-9-18-55-18h-55v45c0 26-7 60-16 77l-16 32-13-24c-11-21-10-28 6-49 10-13 19-37 19-52v-29h-69c-66 0-71 2-91 30-25 34-68 60-90 52-23-7-50-34-50-49 0-11 4-11 20-1 13 9 27 9 46 3 46-17 39-33-20-45-62-13-96-44-96-89 0-40 48-183 49-146 0 17-6 57-14 90-9 39-11 63-4 71 20 24 102 34 288 34h191v38c-1 20-9 91-19 157-11 66-16 122-12 125s10 15 14 28c4 18 0 25-18 32-12 5-25 15-28 22-2 7-8 0-12-15z"/><path d="m985 4339c-11-35 37-55 49-22 5 11 1 22-10 30-24 18-32 16-39-8z"/><path d="m1680 4334c0-36 16-61 49-78 19-10 31-12 38-5 16 16 45-3 84-53 18-24 36-47 40-52 18-21-11 64-31 92-27 36-95 87-145 107-35 15-35 15-35-11z"/><path d="m2454 4339c-8-17-7-55 2-129 7-58 13-134 14-170l1-65 16 30c15 27 15 44 4 166-6 74-15 148-19 163l-8 28z"/><path d="m3228 4338c-14-21-14-27-1-52 8-15 18-78 23-143 6-78 14-123 25-140 16-24 21-25 90-21 46 3 84 11 100 22 24 16 27 16 52-4 23-18 40-20 144-20h119v70c0 46-6 82-16 102l-16 32-13-24c-11-21-10-28 6-49 10-13 19-37 19-52v-29h-102c-123 0-143 8-109 44 30 32 21 61-25 76-36 12-94 5-106-14-14-21-8-46 11-46 10 0 24-7 31-15 10-13 7-17-23-30-48-20-131-20-147 0-8 9-16 69-22 151-10 154-16 178-40 142z"/><path d="m1937 4342c-5-7-5-48-1-91 6-70 4-85-16-126-27-55-82-96-188-136l-77-30 79 6c115 9 145 28 188 121l24 52 11-65c16-90 22-96 107-89 39 3 79 5 89 5 37-1 128 0 145 1 9 0 35-2 56-6l39-7-5 72c-3 40-10 77-16 83-19 19-24-15-8-46 17-33 11-56-14-56-21 0-34 15-48 55l-10 30-1-30c-1-41-17-55-62-55-37 0-51 11-86 66-10 17-11 15-11-14 1-42-13-52-78-52-40 0-54 4-60 18-4 9-17 82-28 162-13 83-25 140-29 132z"/><path d="m3719 4303c-11-13-10-17 6-29 25-18 32-18 44 5 8 15 6 20-14 29-19 9-26 8-36-5z"/><path d="m3643 4270c-11-16-10-21 6-30 28-14 38-13 45 7 5 11 1 22-10 30-23 17-27 16-41-7z"/><path d="m1087 4247c-4-10-7-27-7-36 0-10-21-32-50-50-53-34-75-63-66-87 7-19 85-18 113 1 21 15 23 14 29-12 4-15 13-41 21-56l14-28 159 3c134 2 162 6 176 20 16 16 19 16 55-3 21-10 52-19 69-19 28 0 30 2 30 38 0 40-37 123-57 130-7 2-41-24-77-57-49-45-73-61-94-61-28 0-29 2-35 54-3 29-11 63-18 75l-14 21-11-22c-9-17-8-27 7-52 10-17 19-41 19-54 0-22-2-23-102-20l-103 3-12 50c-7 28-18 79-25 115-10 46-16 60-21 47zm1-114c-3-25-8-28-43-31l-40-2 33 30c40 37 54 38 50 3zm499-61c12-30 12-32-9-32-22 1-58 21-58 33s33 38 43 34c6-2 17-18 24-35z"/><path d="m1306 3913c-7-16 16-43 35-43 17 0 19 35 3 47-24 17-31 16-38-4z"/><path d="m2996 3914c-8-22-8-22 15-34 17-9 23-8 34 7 12 15 12 20-2 31-23 16-40 15-47-4z"/><path d="m2435 3890c-14-15-15-23-6-33 6-8 8-17 4-20-8-9 7-8 32 2 19 8 18 9-7 21-30 14-28 30 3 30 10 0 19 5 19 10 0 17-26 11-45-10z"/><path d="m1230 3880c-8-16-6-21 12-31s24-8 35 7c12 16 11 21-4 31-23 18-31 16-43-7z"/><path d="m2921 3881c-8-15-6-20 14-29 21-10 26-8 35 8 8 15 6 21-9 30-26 14-29 13-40-9z"/><path d="m1639 3463c-89-46-127-135-79-183 31-31 51-27 38 8-16 42-1 101 34 134 57 53 58 51 58-202v-230h35 35v250 250h-33c-18 0-58-12-88-27z"/><path d="m2990 3445c-26-32 13-81 48-59 34 22 22 74-18 74-10 0-23-7-30-15z"/><path d="m2050 3277c0-121-4-177-12-185-17-17-28-15-28 4 0 9-12 68-27 131l-27 115-30-6c-16-4-30-7-31-9 0-1-11-38-23-82-13-44-32-97-43-119-25-48-18-87 19-117 42-33 99-22 159 31l48 42 7-33c13-65 78-80 122-28 21 25 27 28 32 14 8-21 56-45 89-45 16 0 38 12 56 29l29 30 12-22c22-43 65-50 98-17l20 20v-20c0-15 7-20 29-20h29l3 118c4 125 20 172 57 172s42-20 42-157v-133h30 30v109c0 127 11 168 48 178 40 10 52-17 52-117 0-48 5-101 11-119 20-56 73-68 115-26l26 26 20-26c28-36 71-34 107 6 24 26 30 29 37 16 27-48 121-61 159-22 28 27 36 56 10 35-22-19-81-16-104 4-41 37-39 174 4 220 13 15 28 26 32 26 22-1 38-23 38-52 0-45 29-46 33-1 5 46-26 73-81 73-75 0-117-61-117-169 0-94-29-141-65-105-12 12-15 42-15 145v129h-30-30v-97c0-110-12-168-38-182-37-20-47 2-48 101-1 153-13 178-88 178-26 0-40-7-57-27-14-18-23-24-26-15-16 45-102 60-125 22-7-11-16-20-20-20-5 0-8 9-8 20 0 16-7 20-30 20h-30v-115c0-113-10-159-36-169-7-3-20 2-29 10-12 12-15 42-15 145v129h-30c-21 0-30-5-30-17 0-15-1-15-18 0-23 21-80 22-108 2-34-23-57-84-63-169-6-82-20-106-55-93-14 6-16 30-16 207v200h-35-35zm318 1c18-18 16-172-3-207-20-39-50-45-82-17-22 19-27 32-27 72-1 69 11 117 35 142 22 24 58 29 77 10zm-431-160c5-65 5-68-20-79-22-10-31-9-52 5-27 18-33 36-11 36 17 0 27 23 16 39-4 7 2 45 14 84l20 71 14-44c8-25 16-75 19-112z"/><path d="m1410 2594c-98-36-125-66-125-135 0-32 6-54 19-68 25-28 51-29 36-2-17 32-12 106 8 131 14 18 32 24 75 28l57 4v-226-226h30 30v219 219l75-5c79-6 105 3 105 37 0 15-9 18-57 17-32-1-98 2-148 6-49 4-97 4-105 1z"/><path d="m2478 2562-28-3v-167c0-193-9-223-75-241-84-23-125 35-110 154 7 63 41 107 74 98 22-5 24-10 25-53 1-38 30-32 34 7 4 45-26 73-79 73-22 0-49-5-61-11-32-17-58-86-58-156 0-93-30-142-65-107-12 12-15 42-15 145v129h-30c-21 0-30-5-30-17 0-15-1-15-18 0-10 10-35 17-56 17-67 0-116-79-116-187 0-50-22-80-66-92-43-12-76-1-98 31-27 38-20 53 30 66 65 18 94 50 94 106 0 54-24 76-81 76-75 0-121-68-121-179 0-86 30-136 88-147 48-9 79 2 124 42l39 35 15-28c29-58 101-69 147-24l29 30 12-22c14-28 27-37 56-37 22 0 55 25 65 51 5 12 8 11 19-1 47-56 112-65 171-25 20 14 37 30 37 35 0 6 5 10 10 10 6 0 10-16 10-35 0-32 2-35 30-35h30v119c0 105 2 121 21 145 11 14 29 26 39 26 35 0 45-29 47-134 3-115 18-149 70-154 24-2 36 4 57 28 14 17 26 27 26 21 0-20 39-51 64-51 13 0 35 9 50 21l26 20v-20c0-17 6-21 30-21h30v119c0 105 2 121 21 145 11 14 29 26 39 26 35 0 45-29 47-134 3-113 18-148 68-154 30-4 75 30 75 57 0 11 8 8 28-11 40-37 77-43 118-19l34 20v-28c0-21-9-34-37-52-73-48-63-129 16-129 52 0 73 26 79 96 4 46 8 57 27 64 12 5 29 16 38 25 16 15 19 15 43-4 32-25 74-27 115-6 36 19 51 55 44 104-11 64-47 216-55 224-4 4-18 5-32 2-20-5-28-20-52-101-16-51-35-102-42-111-7-10-14-29-14-43 0-32-23-66-50-73-19-5-20-1-20 154v159h-30c-21 0-30-5-30-17 0-15-1-15-18 0-21 19-73 22-102 7-38-21-61-76-68-166s-20-114-56-101c-13 5-16 23-16 104 0 131-16 167-79 171-34 3-49-2-67-19l-24-22v21c0 18-6 22-30 22h-30v-97c0-112-12-168-40-183-15-8-22-6-34 12-12 17-16 50-16 145v123h-30-30v-112c0-128-11-163-50-163-25 0-25 1-30 110-6 139-19 165-84 165-31 0-48-6-62-21-19-21-19-21-24 67l-5 89zm-687-176c16-34-1-76-41-103-18-13-39-23-46-23-19 0-18 42 1 88 26 63 67 81 86 38zm257 2c18-18 16-172-3-207-20-39-50-45-82-17-22 19-27 32-27 72-1 69 11 117 35 142 22 24 58 29 77 10zm1340 0c7-7 12-43 12-94 0-67-4-86-21-108-37-48-90-27-102 42-9 44 10 125 34 151 22 23 58 28 77 9zm271-180c1-36-19-68-42-68-17 0-57 29-57 41 0 5 7 9 16 9 12 0 15 8 12 33-3 28 12 98 30 147 6 19 40-112 41-162zm-259-177c0-49-23-76-51-61s-23 45 12 74c17 14 32 26 35 26 2 0 4-18 4-39z"/><path d="m2760 2555c-26-32 13-81 48-59 34 22 22 74-18 74-10 0-23-7-30-15z"/><path d="m1240 1610c0-7 427-10 1260-10s1260 3 1260 10-427 10-1260 10-1260-3-1260-10z"/><path d="m1060 1395v-25h1440 1440v25 25h-1440-1440z"/></g></svg>