<svg height="417pt" preserveAspectRatio="xMidYMid meet" viewBox="0 0 820 417" width="820pt" xmlns="http://www.w3.org/2000/svg"><g transform="matrix(.1 0 0 -.1 0 417)"><path d="m4480 3685-35-12 65-7c36-4 103-20 150-36 116-38 158-49 164-42 9 8-106 52-117 45-6-4-8 0-5 9 5 12 0 14-20 10-23-4-25-2-14 9 20 22 116 15 149-10 34-28 53-27 26 1-38 38-79 45-171 29-71-11-87-11-120 2-30 12-43 12-72 2z"/><path d="m4385 3660c-25-11 1-11 35 0 20 6 21 8 5 8-11 0-29-3-40-8z"/><path d="m4957 3629c-11-29-14-30-53-24-36 5-42 3-54-20-10-19-21-25-46-25-36 0-74-37-74-72 0-14-5-17-24-12-17 4-31-1-45-15-23-23-26-43-11-72 24-43 110-7 97 41-4 16-1 20 11 18 9-2 16-11 16-20-2-26 62 17 76 52 9 22 19 30 37 30 39 0 63 18 63 47v26l23-20c12-11 28-18 36-15 8 2 11 0 7-6-3-5 6-13 19-16 14-4 24-10 21-14-3-5 34-21 82-36 73-23 214-73 286-102 14-5 17-4 12 4-11 18 4 15 73-13 50-21 69-24 90-16l26 9-33 1c-18 1-46 8-62 16-16 9-50 18-75 21-26 4-42 11-38 17s-4 8-20 5c-15-3-24-1-21 3 3 5-9 9-25 9-21 0-31 5-31 15 0 8-4 15-10 15-5 0-10-5-10-11 0-5-5-7-10-4-6 4-8 10-5 15 3 4-5 10-18 14-16 4-19 8-9 14 8 6-3 9-30 10-24 0-58 7-77 15-34 14-34 14 84 32l117 18 47-22c51-25 141-83 183-117 19-15 24-24 15-28-6-3 13-4 43-1 59 6 149-7 159-22 3-6 13-12 21-15 27-9-89-20-140-13-49 7-55 3-52-26 1-4-8-5-19-2-16 5-18 8-7 15 9 7 8 8-5 4-10-3-24-6-30-6-7-1 60-28 148-61s164-64 168-69c5-4-5-11-22-15-16-3-48-15-70-26-22-10-88-36-148-58-152-54-274-109-405-181-159-88-209-122-292-205-93-92-147-168-231-325-37-69-73-132-81-141-8-8-14-19-14-24s-7-16-16-26c-13-14-20-15-45-6-31 12-39 27-14 27 8 0 15 5 15 11s7 8 16 5c11-4 15-2 11 8s0 12 16 8c19-5 20-3 9 10-10 13-10 18-1 24 8 4 9 3 5-4s-2-12 3-12c18 0 12 19-8 30-14 7-21 6-24-3-2-7-9-3-16 11-14 27-7 42 11 24 7-7 15-12 20-12 10 0-2 61-15 78-7 9-4 11 14 9 20-4 24-10 24-37 0-18 5-35 10-37 6-2 9 17 7 47-2 27-7 48-12 45-15-9-18 36-4 63 8 15 14 20 14 12 1-11 6-9 19 8 20 23 48 31 34 10-12-20-14-48-3-48 6 0 10 11 10 25 0 28 9 31 29 13 11-11 12-10 6 1-4 8-2 17 6 22 10 6 11 9 2 9-7 0-13 7-13 15s-5 15-11 15-8-9-4-20c3-11 3-20-2-20s-14 23-21 52c-10 44-10 55 4 76 27 41 8 34-21-8-15-22-35-40-43-40-12 0-13-3-4-12s15-8 27 8c8 10 15 14 15 8 0-15-27-37-38-30-12 7-45-52-36-66 4-6 3-8-3-5-9 6-43-52-43-74 0-6-6-17-14-25-19-19-29-3-34 54-2 30 3 53 17 77 11 19 17 35 12 35-4 0-16-15-26-33-18-34-21-35-92-39-23-2-45-6-49-10-16-17-23-7-6 10 13 14 24 17 45 11s30-4 34 7c3 9 12 12 24 9 13-5 19-1 19 10 0 9-4 13-10 10s-7 1-4 9c3 9 10 13 15 10s8 5 6 17c-4 24-41 48-76 49-23 0-77-46-61-52 12-5-8-48-22-48-33 1-39 16-21 48 10 18 24 30 31 27s10 0 7 5c-12 20 23 42 56 35 21-5 36-2 47 8 16 15 21 17 41 17 5 0 12 7 15 16 3 8 2 12-4 9s-11 4-11 17c-2 29-2 29 6 53 6 18 5 18-5 2-9-13-15-15-31-6-20 10-20 10 0 27 25 22 36 75 19 89-7 6-27 13-45 16-26 5-34 2-48-19-9-14-13-33-10-44 4-11 2-20-3-20s-9-6-9-14c0-10 9-13 28-11l28 4-28-30c-34-35-44-66-25-73 8-3 14-11 14-17 0-7-3-10-6-6-3 3-17-6-30-20s-24-22-25-17c0 5-5-2-10-15-7-17-15-22-29-18-11 3-18 1-14-4 3-5-2-9-10-9-9 0-16 7-16 15 0 22 36 59 49 51 7-5 8-1 5 9-4 9 0 23 7 33 8 9 22 32 33 50l18 33-21-13c-12-7-21-22-21-34s-11-29-25-38c-15-10-25-12-25-6s-5 8-10 5c-6-3-7-17-4-31 3-13 2-24-4-24-5 0-12-9-15-20-4-14-10-18-24-14-16 6-16 5 2-9 16-13 17-16 4-17-8 0-23 6-34 14-17 12-17 13 9 20 26 6 27 8 13 29-13 20-12 24 10 40 13 10 21 22 18 26-2 5 7 21 20 37 30 35 30 38 8 55-17 13-17 13-3-5 13-16 12-20-8-36-12-10-22-23-22-29s-6-11-14-11c-9 0-12-7-9-20 3-12 0-20-6-20-7 0-10 4-7 9s-3 11-14 14c-12 3-18 1-14-5s-4-8-17-6c-29 4-28 34 2 60s22 31-11 7c-16-12-27-26-24-30 2-4 0-10-6-14-5-3-10-1-10 4 0 6-5 11-11 11-8 0-8-4 1-14 7-9 8-21 3-30-7-13-10-13-28 1s-19 15-1 9c14-5 16-3 9 6-12 15-13 48-2 48 5 0 6 6 3 14s-1 17 5 21c6 3 11 12 11 18 0 7-10-2-21-20-20-31-22-32-44-17-15 10-24 11-27 4-2-8-11-8-32 0-18 7-26 15-22 25 3 8 1 17-5 21-16 9-36-26-31-52 4-20 1-23-14-18-18 5-18 5 0-10 11-9 28-13 38-10 12 3 18 1 16-7s9-14 27-15c16-2 35-11 42-20 7-10 13-15 13-11 0 3 10 3 23-2 30-11 32-49 2-47-16 1-21 6-17 19 4 15-7 22-31 18-4-1-26 9-50 21-23 12-49 23-58 24-24 2-69 35-63 46 4 6 10 5 16-3 7-10 8-8 5 9-5 19-2 22 16 17l22-6-22 18c-15 12-21 27-19 45 2 15-1 25-6 22s-7-13-6-22c2-12-3-16-17-15-19 1-19 1-2-11 14-11 25-46 13-46-19 0-82 38-78 48 2 6-1 12-7 12s-11 5-11 11 8 8 19 4c11-3 23 0 27 6 4 8 3 9-4 5-20-12-35 4-21 21 18 21-6 34-53 28-32-4-36-2-31 12 4 11 3 14-6 9-20-13-41 13-35 43l5 26-15-25c-8-14-10-26-5-28 11-4 12-23 2-21-22 4-25-3-7-16 17-13 17-14 2-15-9 0-21 6-25 14-5 8-24 18-43 21-20 3-31 2-25-2 30-27 85-63 94-63 6 0 15-9 21-20s14-19 18-19c24 4 34-3 29-21-5-21 8-29 15-9 3 8 21 1 48-17 60-38 81-51 108-65 12-7 22-16 22-21 0-4 5-8 12-8 6 0 26-11 44-25s35-25 39-25c3 0 33-19 67-41 37-25 63-37 67-31 4 7 15 4 31-8 14-11 20-20 15-20-6 0-16 5-23 12-6 6-14 9-17 6s13-17 37-32l43-27-54 7c-38 4-52 3-47-5 4-6 26-11 49-11 44 0 92-24 82-41-4-5 4-9 17-9 23-1 129-67 135-86 2-5-40-8-104-6-60 1-152-4-205-11l-97-14-128 80c-193 120-279 168-310 173-27 5-27 5-8-10 11-9 26-16 34-16 12 0 335-187 369-213 7-5 10-12 7-15-2-3-10 0-17 5-22 18-167 93-178 93-6 0-8-5-4-12 5-8 2-9-9-5-25 9-21 2 11-19 23-15 25-15 13-1-7 9-10 17-5 17 12-1 61-39 50-40-5 0-3-7 4-15 26-31-11-13-112 53-131 87-133 88-124 74 4-7 2-12-4-12s-8-5-4-11c11-18-37 0-73 27-17 13-36 24-41 24s-17 10-28 22c-19 21-19 21 1 15 14-5 11 0-10 18-16 14-34 25-40 25-5 0 1-10 15-21 24-20 24-20 3-14-13 4-23 4-23 2s50-37 110-77c106-70 148-104 74-61-42 25-54 26-54 5 0-14-2-14-15 0-9 8-14 20-13 26 2 7-28 34-67 60-70 49-99 59-54 19 26-23 13-17-43 18-21 13-38 21-38 18 0-6-39 21-135 94-32 24-91 61-131 82-74 37-146 83-483 306l-184 121 37 10c20 6 52 9 71 7s32 1 29 6 3 10 13 10c10 1 31 3 46 5 19 2 27-1 24-9s7-12 26-13l30-1-24 13c-21 13-14 14 66 10 87-5 88-5 25 4-78 11-153 13-180 5-36-12-120-22-120-15 0 4-44 10-97 13-95 5-99 5-139-22-40-26-42-30-39-70 2-24 9-49 15-55s48-29 92-51l82-40 45-90c59-117 137-197 241-247 115-56 158-73 244-93 71-18 81-23 106-60 49-71 105-121 176-156 64-32 97-69 61-69-8 0-17-6-20-13-12-31-150-129-249-177-60-29-108-58-108-64s-62-74-138-152c-116-119-152-150-234-198-54-31-98-58-98-60 0-1 13-1 30 2 17 2 30 10 30 18 0 7 11 16 25 20 14 3 25 10 25 15s5 9 11 9c21 0 149 101 186 147 23 28 39 40 43 32 5-7 10-8 14-1 3 6 1 12-5 14-14 5 118 148 136 148 7 0 16 7 19 15 7 20 73 48 93 41 8-3 23-1 34 4 10 6 19 7 19 2 0-12-25-33-36-31-22 4-35-2-28-13 5-7 2-9-8-5-9 3-21 0-27-6-8-8-11-7-11 4-1 7-7 2-15-13-11-20-20-25-37-21-22 5-22 5-5-9 15-11 16-18 8-41-14-35-14-40-1-32 6 3 10 15 10 26 0 16 5 19 20 14 10-3 33 1 50 10 30 16 32 15 28-2-2-10-13-19-26-21-14-2-22-10-22-23 0-16-5-19-20-14-13 4-22 1-26-9-3-8-12-12-20-9s-14-1-14-11c0-13 5-14 26-6 42 16 52 10 12-7-21-8-38-19-38-24 0-6 9-5 20 1 25 13 26 2 3-17-16-12-14-12 11 0 20 10 34 28 45 57 16 44 44 69 34 31-3-12-8-21-12-21-3 0-7-14-8-30-3-44 4-37 23 25 10 30 22 55 26 55 5 0 7 4 3 9-3 5 0 21 6 35 10 21 17 24 44 21 24-3 35 0 39 11 4 9 13 14 21 10 8-3 15-1 15 4 0 13 44 13 113-1 32-7 54-16 51-21-4-6 2-7 16-3 15 5 20 4 16-4-5-7 2-11 16-11 17 0 19 3 9 9-11 7-10 10 5 13 10 2-6 8-36 12-68 10-116 29-53 21 23-3 49-8 59-12 11-4 15-3 11 4-9 15-101 34-124 27-14-5-15-4-4 4s11 10 0 14c-8 3-11 8-8 11 3 4 39-4 80-17 80-25 140-28 147-8 2 7-2 10-12 6-19-7-146 16-146 27 0 19 135-3 265-43 108-33 128-44 106-57-8-6-9-11-3-15s15 1 20 10c8 15 13 15 41 3 17-8 31-18 31-23 0-4 7-3 15 4 13 10 15 9 15-9 0-11-5-21-12-21-6 0-8-3-5-7 4-3 2-12-4-20-9-10-4-13 27-13 26 0 34-3 25-9s-10-10-2-16c14-8 43 13 35 26-3 5-19 9-35 9-24 0-30 4-27 17 2 10 11 16 19 15 8-2 46-5 84-7 39-1 96-6 128-10 41-6 57-5 57 4 0 6-14 14-30 18-17 3-33 9-35 13-15 24 197 21 288-3 31-9 96-31 142-48 83-32 85-33 58-44-16-7-50-15-78-19-86-13-109-28-363-233-63-50-135-133-157-179-21-45-57-71-199-144-66-34-146-80-179-102-84-57-185-160-245-250-29-42-62-84-74-92-12-9-19-16-14-16s1-9-9-20c-26-29-39-25-87 26-42 46-163 149-198 169-36 21-50 38-50 60 0 27 8 34 135 120 129 89 203 145 291 222 40 35 77 63 83 63s11 4 11 9 18 29 41 53c96 103 120 169 78 222-49 62-136 74-216 30-50-28-210-133-253-166-17-13-36-18-64-16s-40-1-44-12c-3-11-2-12 8-4 6 7 20 9 31 7 19-5 19-7 3-24-19-22-44-25-44-6-1 6-7-1-14-18-12-27-125-131-242-223l-40-32-41 38c-22 21-64 52-94 69-68 38-169 121-169 138 0 8 6 16 13 18 7 4 8 6 1 6-28 2-36-27-23-81 10-45 22-62 76-113 35-33 100-96 143-139l80-79 39 26c40 26 144 47 239 47 26 0 59 7 75 14 15 8 27 11 27 6 0-4 10-6 23-3 27 6 22 1-83-78-95-71-99-77-106-136l-6-49 55-46c30-26 58-44 62-40 5 4 5 1 1-6-5-8 6-24 29-45 21-17 58-59 83-92 59-77 59-77 109-71 48 6 79 34 234 209 48 54 105 110 128 125s43 34 46 43c9 28 142 68 250 75 59 3 113 10 167 20 17 3 25 10 22 18s4 16 15 19c12 3 21 1 21-4s14-9 30-9c17 0 30 5 30 11 0 7-10 9-27 4-19-4-25-3-18 4 6 5 35 12 65 15 54 6 54 6 25-9-30-14-30-14-5-16 14-1 29-1 34 0 4 1 14-3 22-10 7-6 17-8 22-5 10 6 22 6 218 7h142l6-25c4-18 13-26 28-26 21 0 21 0 3-20-11-12-20-29-21-38-4-25 22-60 48-64 13-2 24-11 26-23 10-54 77-75 106-33 9 12 16 30 16 39 0 22-32 49-58 49-17 0-22 6-22 24 0 14-9 32-21 40-21 14-21 16-5 40 20 32 21 75 1 82-33 13-14 29 55 48 24 7 24 6 6-8-11-9-30-16-44-16-13 0-21-4-18-9 7-11 43-3 76 18 18 12 48 16 115 15 89-1 90-1 40 10-48 12-49 12-18 17 17 3 55-3 85-12 29-10 62-18 73-18s-1 7-27 15c-58 18-62 25-10 17 71-11 136-30 140-42 3-8-4-10-21-6-14 4-28 2-31-3s9-13 28-16c19-4 39-13 46-21 17-21-14-20-126 5-89 20-221 27-196 11 7-4 25-6 40-4 22 3 23 2 8-5-21-9 35-23 152-37 37-5 52-11 52-22 0-12-8-14-37-8-20 4-91 8-158 10l-120 2 159-23c92-13 165-29 175-37 21-18 63-28 78-19 17 11 33 59 26 78-5 14 4 15 78 9 46-4 103-11 127-15 23-4 45-4 48 1s-1 9-8 10c-7 0-51 5-98 10s-105 10-130 10c-37 1-39 2-12 6 17 2 32 9 32 15s7 5 16-3c15-12 16-11 9 10-6 20-4 23 10 18 9-4 29-8 43-8 27-1 27-1-3-8-23-6-10-9 57-15 47-5 92-6 100-3 7 3-10 6-39 6-52 1-76 14-47 25 9 3 33 2 53-3s101-15 181-21c137-12 165-17 200-39 8-6 42-21 74-36l59-25 24 22c28 26 30 58 3 65-10 3-26 16-35 29-8 13-72 73-143 133-70 60-158 141-196 181-72 75-113 107-123 97-3-4 6-12 21-18 14-7 26-18 26-26 0-7 5-13 10-13 6 0 45-35 88-78 42-43 106-102 142-131 87-72 152-132 148-136-2-3-40 17-83 42-152 88-420 233-431 233-6 0-17 7-24 16-22 25-44 32-70 21-38-15-49-16-44-3 3 7-2 18-10 25-18 15-59 23-51 10 4-5 10-7 14-5 4 3 12-4 18-14 11-17 10-17-18-3-16 8-29 19-29 24s-5 8-11 7c-6-2-18 8-26 22l-15 25 21-24c11-13 21-18 21-12 0 7 4 9 10 6s7 1 3 10c-4 12 14 7 68-20 41-20 70-32 64-27-5 6-59 36-120 66-124 63-175 91-191 104-5 5-36 18-68 29-33 11-53 23-45 26s-3 6-23 6c-21 1-38 6-38 11 0 6-9 10-20 10s-20 4-20 9-10 12-22 17c-17 5 0 9 57 14 44 3 64 7 44 8s-51 8-70 16l-32 14 44 4c24 3 49 2 54-2 6-4 36-15 67-24 32-10 60-22 64-27 3-5 13-9 23-9s31-6 45-14c26-13 25-14-41-23l-68-10h73c39 0 72 3 72 7 0 13 63-5 68-19 3-8 1-11-4-9-5 3-18 2-29-2-15-5-10-8 22-11 24-3 39 0 36 5-4 5 1 7 11 3s21-7 24-7c4 0 0-4-8-10-23-14-7-21 51-22 29 0 60-3 68-8 9-4 36-12 61-18 37-9 48-8 62 4 25 23 32 64 14 83-15 14-13 17 11 37 27 22 36 69 19 107-6 12-4 17 6 17 24 0 43 46 32 78-8 22-6 32 10 55 19 26 20 30 5 56s-15 29 8 55c23 27 23 29 8 53-15 22-15 27-2 41 23 26 29 59 17 82-9 17-8 25 4 39 20 22 20 41 1 68-13 18-13 22 0 33 20 16 19 56-1 64-9 3-14 15-12 28 2 16 17 26 58 40 57 19 90 47 90 77 0 51 121 158 295 262 131 78 135 83 135 145 0 29-4 56-10 59-5 3-10 19-10 36s-5 29-13 29c-7 0-24 8-37 17-14 10-40 19-58 20-41 2-130 31-137 44-4 5 8 9 24 9 17 0 31 5 31 11s-11 8-27 5c-47-10-97-9-122 1-23 9-23 10 15 15 21 3 54 5 72 3 17-2 32 1 32 6 0 18 17 8 73-42 31-28 57-46 57-41 0 14-96 99-145 127-28 17-64 27-115 31-83 7-110 18-188 76-29 22-88 56-130 76-65 31-88 37-164 40-77 4-88 7-88 23 0 10-9 23-21 29-24 13-69 5-69-11 0-8-5-7-15 1-9 7-25 10-41 6-17-5-23-3-19 4 3 5 3 10 0 10-4 0-12-14-18-31zm157 12c3-4-8-8-23-7-16 1-27 4-24 9 6 10 41 9 47-2zm-84-11c0-5-5-10-11-10-5 0-7 5-4 10 3 6 8 10 11 10 2 0 4-4 4-10zm195-60c3 0 3 5-1 12-5 8-2 9 10 5 10-4 31-7 47-7 17 0 28-4 25-9s-16-9-28-9c-13 0-51-5-86-12-47-8-67-8-77 0-7 6-19 10-27 9-25-3-38 1-38 12 0 6 8 8 18 5 9-3 40-2 67 3 28 4 58 4 67-1 9-4 19-8 23-8zm-80-70c3-5 1-10-4-10-6 0-11 5-11 10 0 6 2 10 4 10 3 0 8-4 11-10zm85-30c0-5-2-10-4-10-3 0-8 5-11 10-3 6-1 10 4 10 6 0 11-4 11-10zm675-251c15-14-7-10-35 7l-25 15 25-7c14-3 29-10 35-15zm-3438-220c153-100 343-224 423-275 80-52 198-129 262-172 65-42 200-131 302-197 112-73 182-125 179-132s-10-13-17-13c-6 0-174 109-371 242-477 320-676 453-771 512-44 27-105 69-136 93s-60 43-65 43-26 12-47 26c-28 19-41 23-49 15-14-14-27-14-27-1 0 6 7 10 15 10 9 0 12 6 9 15-4 8-1 15 5 15 5 0 135-82 288-181zm3582 169c-1-22-75-79-93-72-9 3-13 10-10 15s9 7 14 4c4-3 20 11 34 30 27 35 57 47 55 23zm-3884-47c73-33 133-67 169-95 22-17 83-59 135-93 53-35 89-63 81-63s8-12 35-26c88-47 184-104 190-114 9-14-2-12-28 5-15 10-27 11-37 4-26-16 23-49 66-44 36 5 91-23 143-72 13-13 28-23 33-23s14-5 21-11 29-20 49-32c67-40 318-211 318-218 0-11-144 27-190 51-50 25-166 133-175 161-4 11-17 22-31 25-14 4-23 11-21 17 4 12-218 71-237 63-6-2 3-7 19-11 17-4 35-11 40-15 6-4 28-11 50-14 52-9 67-19 59-39-4-12-14-15-37-10-18 3-33 10-35 15-2 4-10 8-18 8s-14 5-14 10c0 6-8 10-18 10s-26 6-37 14c-11 7-37 19-57 25-44 15-51 30-10 24 23-4 21-1-17 21-23 14-46 26-50 26-5 0-16 10-27 21-10 12-30 26-44 31-14 6-20 12-13 15s-1 16-21 33c-18 16-54 68-81 115-36 64-52 84-64 80-8-3-12-3-8 2 5 4-34 28-85 53s-94 51-96 59c-3 7-1 12 4 9 5-2 23-10 39-17zm3893-7c0-17-9-31-27-41-14-9-44-28-66-43-22-14-62-39-90-54l-50-27 50 45c28 25 49 52 47 61-2 8 2 15 8 15s8-4 5-10c-12-19 10-9 44 20 19 16 38 27 42 24 4-2 10 5 14 16 9 28 23 25 23-6zm-3855-52c25-11 39-42 18-42-26 0-79 26-98 49-36 41-29 55 15 28 20-12 49-28 65-35zm3654-2c-19-16-39-30-43-30-11 1 58 59 69 60 4 0-8-13-26-30zm-7-70c-45-42-66-56-72-47-5 8-8 4-8-10 0-13-5-23-11-23-7 0-22-12-35-27-13-16-24-23-24-17 0 23 29 67 63 95s35 28 31 6c-3-18-2-17 9 6 7 15 16 24 20 21 4-4 9 1 13 10 3 9 9 14 14 11 4-2 16 4 26 15 10 10 24 19 29 19 6 0-19-27-55-59zm-3590 43c0-5-5-15-10-23-8-12-10-11-10 8 0 12 5 22 10 22 6 0 10-3 10-7zm3760-4c0-5 5-7 11-3 7 4 10 1 7-7-5-16-117-94-124-86-14 14 12 56 49 80 44 29 57 33 57 16zm-385-19c-3-5-12-10-18-10-7 0-6 4 3 10 19 12 23 12 15 0zm-112-27c-18-9-33-23-33-30 0-12-13-17-33-14-5 1-6-3-2-9 3-5 1-10-6-10s-10-2-7-5 24 1 47 10c23 8 39 10 36 5-8-13-73-32-85-25-6 4-9 13-6 21 6 16-89-24-144-60-19-13-56-35-83-50-26-15-45-31-43-35 3-4-6-13-19-19-18-8-26-8-31 0-4 7-2 14 4 16s28 15 49 30c21 14 89 54 150 88 62 33 109 65 105 69-4 5-1 5 6 1 17-10 54 3 46 16-4 6-2 8 4 5 5-4 21-3 34 2 38 16 46 11 11-6zm-3159-57c14-30 31-58 36-61 20-13 9-25-22-24-28 0-30 2-13 9 19 8 19 9-3 9-30 1-46 39-38 85 4 20 9 36 11 36s15-24 29-54zm3529 14c-6-22-23-38-23-21s12 41 20 41c5 0 6-9 3-20zm-60-35c-3-9-8-14-10-11-3 3-2 9 2 15 9 16 15 13 8-4zm-418-5c-3-5-12-10-18-10-7 0-6 4 3 10 19 12 23 12 15 0zm54-14c-10-10-133-55-137-51s51 31 98 48c18 7 45 9 39 3zm-113-15c-6-9-66-33-66-26 0 6 52 34 63 35 5 0 6-4 3-9zm-1656-11c0-5-2-10-4-10-3 0-8 5-11 10-3 6-1 10 4 10 6 0 11-4 11-10zm-25-10c3-5 2-10-4-10-5 0-13 5-16 10-3 6-2 10 4 10 5 0 13-4 16-10zm1967-32c9-56-11-97-61-125-25-14-68-39-94-56-26-16-50-28-52-25-2 2 29 32 70 66 55 46 73 67 69 80-5 14-4 15 5 2s14-11 38 14l28 28-27-17c-33-21-35-16-8 15 12 13 18 30 16 37-3 7-2 13 3 13s11-14 13-32zm-3237 2c18-8 17-9-7-9-15-1-30 4-33 9-7 12 12 12 40 0zm2910 0c4-6-19-22-51-36-54-24-58-24-73-8s-15 17 0 6c13-10 19-9 28 1 6 8 7 17 3 22-4 4 4 2 18-5s21-9 17-4c-4 4 3 14 15 21 28 15 35 16 43 3zm55 0c0-5-5-10-11-10-5 0-7 5-4 10 3 6 8 10 11 10 2 0 4-4 4-10zm240 0c0-5-5-10-11-10-5 0-7 5-4 10 3 6 8 10 11 10 2 0 4-4 4-10zm-190-21c-14-4-20-8-15-8 11-2-24-31-36-31-4 0-6 8-5 17 3 19 55 45 71 35 5-3-1-9-15-13zm-3003-15c-3-3-12-4-19-1-8 3-5 6 6 6 11 1 17-2 13-5zm2893-4c0-5-5-10-11-10-5 0-7 5-4 10 3 6 8 10 11 10 2 0 4-4 4-10zm184-98c-38-35-68-68-66-73 1-6-2-7-9-4-6 4-23-5-39-20s-33-24-39-21c-6 4-11 2-11-4s-9-20-20-32c-19-21-20-21-21-2-1 15-2 14-8-5-4-14-13-27-20-29-8-3-11 0-8 5s0 10-8 10c-10 0-15-11-16-31 0-26-2-28-9-11-8 18-9 17-9-7-1-29-16-38-24-15-2 6-3 4-2-5 2-10-1-21-6-24s-9 8-9 24c0 30 10 41 105 117 68 55 91 75 133 113 33 29 37 31 44 15 6-17 7-17 7-1 1 10 22 39 48 65 47 47 48 47 52 23 2-20-10-37-65-88zm-138 82c-3-20-32-37-48-28-6 4-8 3-4-4 5-9-178-142-198-142-12 0-144-110-150-125-3-9-4-17-3-19 5-7-26-35-34-30-5 3-8 0-7-8 2-7-3-12-10-10-6 1-11-3-10-9 2-6-8-13-22-15l-24-5 29 33c96 106 102 114 70 89-16-13-63-58-104-100-52-54-64-63-40-31 46 61 126 151 136 151 4 1 16 5 26 10 13 7 15 14 8 27-8 13 3 25 54 63 35 26 62 49 60 53-3 3-2 4 2 1 7-6 94 43 105 59 4 5 5 13 2 17-2 4 5 5 16 2s22-9 25-13c8-14-86-76-107-72-5 1-8-3-8-9 0-5-5-7-12-3-6 4-8 3-4-4 8-13-64-73-77-65-6 3-7 1-3-5 3-6-8-22-26-36s-30-26-26-26c5 0 38 25 75 55 38 30 94 68 126 85 31 17 55 35 52 39-6 10 18 31 75 64 53 31 59 32 56 11zm-1400-10c17-14 17-15 1-10-10 3-23 6-28 6s-9 5-9 10c0 14 13 12 36-6zm1314 6c-8-5-19-10-25-10-5 0-3 5 5 10s20 10 25 10c6 0 3-5-5-10zm-2743-36c12-13 29-24 38-24 8 0 15-5 15-10 0-13-41-4-95 20l-40 18 30 2 30 2-35 14-35 14 35-6c19-4 45-17 57-30zm1501 17c3-8-1-12-9-9-7 2-15 10-17 17-3 8 1 12 9 9 7-2 15-10 17-17zm987-26c-27-25-63-55-80-67-49-36-9 7 58 64 73 60 89 63 22 3zm-1005 5c0-13-11-13-30 0-12 8-11 10 8 10 12 0 22-4 22-10zm1160 6c0-2-7-7-16-10-8-3-12-2-9 4 6 10 25 14 25 6zm-1016-50c9 3 16 1 16-5 0-7-7-14-15-17-8-4-12-10-9-15 9-15-24-10-40 7-18 18-18 17-10 39 6 14 8 14 24 0 9-8 25-13 34-9zm1466-8c0-30-10-44-38-52-21-7-22-5-16 21 11 47 54 72 54 31zm-601-39c-24-18-55-41-68-53-13-11-21-15-17-8 11 18 106 92 118 92 6 0-9-14-33-31zm536 4c-4-16-7-28-8-29-1 0-29-14-62-30-63-30-205-120-217-138-5-6-8-2-7 9 0 11 17 33 40 50 22 17 52 40 67 51 39 31 175 114 185 114 5 0 6-12 2-27zm-2655-57c0-7-9-16-20-19-23-6-25-2-7 18 16 18 27 19 27 1zm2030 11c0-2-17-19-37-38l-38-34 34 38c33 34 41 42 41 34zm-742-15c14-9 6-42-10-42-5 0-7 4-4 9s-1 11-9 15c-8 3-15 10-15 16 0 12 20 13 38 2zm57-21c3-5 1-12-5-16-5-3-10-14-10-25 0-13-5-17-20-13-17 4-17 7-5 19 8 8 12 21 9 29-7 17 21 21 31 6zm395-12c0-5-4-9-10-9-5 0-10 7-10 16 0 8 5 12 10 9 6-3 10-10 10-16zm-327-13c24-18 21-24-8-18-14 2-25 11-25 18 0 17 10 17 33 0zm697-41c-24-25-49-45-55-45-9 1 84 89 95 90 2 0-16-20-40-45zm415-12c-2-27-6-60-10-76-5-17-3-33 5-42 10-13 10-19-4-33-19-22-20-42-5-76 10-20 9-28-5-41-18-19-20-38-6-64 7-14 5-23-10-36-24-22-25-43-5-72 14-20 14-22-5-28-23-7-35-44-26-81 5-20 2-32-13-46-25-22-27-65-5-96 14-21 14-22-11-22-18 0-29-8-37-27-7-16-13-30-14-32-2-2-45 17-96 41-51 25-121 51-156 58-65 13-92 30-48 30 26 0 46 24 46 57 0 10-21 32-49 51-27 19-61 46-75 61-31 32-34 29 71 90 64 37 77 50 115 113 23 39 64 95 92 126 35 38 50 62 48 78-2 12 2 25 9 30 9 5 10 0 5-20-8-34 1-33 40 5 38 37 125 98 140 98 8 1 11-16 9-46zm-1130-2c-9-16-25-3-18 15 4 10 9 12 15 6s7-15 3-21zm300-9c-8-8-25 10-19 20 4 6 9 5 15-3 4-7 6-15 4-17zm-1155-39c0-7-61 31-73 46-7 8 7 2 31-14 23-15 42-30 42-32zm895 47c3-5 1-10-4-10-6 0-11 5-11 10 0 6 2 10 4 10 3 0 8-4 11-10zm135 0c13-9 13-10 0-10-8 0-22 5-30 10-13 9-13 10 0 10 8 0 22-5 30-10zm-103-25c0-8-4-15-9-15-4 0-8 7-8 15s4 15 8 15c5 0 9-7 9-15zm-77-5c0-5-2-10-4-10-3 0-8 5-11 10-3 6-1 10 4 10 6 0 11-4 11-10zm863-28c-4-21-15-39-31-50-15-9-37-27-51-39-13-13-27-23-32-23-4 0-15-7-23-16-15-14-16-13-16 11 0 15 6 32 13 39 28 27 139 117 142 114 1-2 0-18-2-36zm57-16c0-23-16-27-17-5-1 10 2 19 8 19 5 0 9-6 9-14zm-1675-36c27-29 15-32-20-4-20 16-25 24-14 24 9 0 24-9 34-20zm959 14c29-11 17-19-26-17-56 2-59 4-23 13 17 4 31 8 32 9 1 0 8-2 17-5zm276-24c-11-16-26-33-33-37-12-7 0 11 32 50 23 28 24 20 1-13zm110 11c0-5-7-12-16-15-14-5-15-4-4 9 14 17 20 19 20 6zm-1010-46c30-19 48-35 42-35-7 0-23 7-36 16-15 9-26 11-30 5-4-5 1-14 10-19 16-9 15-10-3-16-11-4-33-2-49 4-27 9-28 9-10-5 11-8 16-15 12-15-15 0-62 29-81 51l-20 23 33-23c31-22 34-22 51-7 10 9 23 16 29 14 5-2 10 1 11 7 0 5-5 10-12 11-25 2-28 4-22 14 9 15 15 13 75-25zm-669 10c1-17-18-17-25 0-4 11-1 15 10 13 8-2 15-7 15-13zm434-42c11-7 16-13 12-13-10 0-87 51-87 57 0 5 27-11 75-44zm1144-2c-18-23-34-39-37-37-2 3 11 23 29 45 18 23 34 39 37 37 2-3-11-23-29-45zm-569 29c-21-7-19-8 16-9 23-1 56-4 74-8 23-4 31-3 26 5-8 13 42 0 71-18 17-11 17-11-2-5-41 15-59 15-29 1 57-27 91-77 99-146 4-34 4-64 1-67-3-4-6 3-6 14s-7 20-15 20-15-3-15-7c0-3-8-6-19-6-10 0-17 5-14 12 5 12-73 67-99 69-14 1-15-1-6-13 9-11 3-10-27 3-61 26-86 32-165 40-66 7-72 9-55 21 10 8 39 15 64 16l46 1-50 7c-28 4-38 8-22 8 15 1 27 7 27 12 0 6 11 10 24 10 32 0 87-20 81-30-2-4 7-7 21-7s31-6 37-13c10-10 4-11-28-6l-40 6 30-14c24-12 26-15 10-16-12-1-15-4-7-7 7-3 19 0 26 6 10 8 22 8 40 1 77-29 43 12-49 59l-66 34-107-7c-72-4-102-3-92 4 8 5 44 10 80 11s54 4 40 7c-23 4-24 5-5 13 11 4 45 7 75 7 42 0 49-2 30-8zm-832-23c12 0 22-3 22-7 0-5 9-12 20-15 11-4 34-18 51-32l31-26-34-12c-18-6-37-9-43-6-5 3-12 6-15 7-3 0-23 9-45 20-30 14-40 24-37 39 3 16 1 17-7 5-9-13-11-12-11 3 0 10-4 15-10 12s-7 1-4 9c4 12 13 14 33 9 14-4 36-7 49-6zm1676-33c-14-28-35-47-82-72-35-19-65-32-68-29s32 36 78 75 85 69 87 67-5-21-15-41zm-364 32c0-2-7-9-15-16-13-11-14-10-9 4s24 23 24 12zm280-24c0-22-12-39-50-71-33-28-50-37-50-27s-6 13-15 10c-21-8-19 8 4 28 22 18 33 14 24-10-5-10-3-13 6-8 8 5 10 18 7 32-4 13-2 24 3 24s19 11 32 25c31 32 39 31 39-3zm-280-11c0-5-9-19-21-32l-20-24 17 33c19 33 24 38 24 23zm80-26c-13-14-25-23-28-21-5 6 31 44 42 45 5 1-1-10-14-24zm-923-31c-3-3-12-4-19-1-8 3-5 6 6 6 11 1 17-2 13-5zm-377-14c0-5-5-10-11-10-5 0-7 5-4 10 3 6 8 10 11 10 2 0 4-4 4-10zm558 3c-10-2-26-2-35 0-10 3-2 5 17 5s27-2 18-5zm-771-9c-3-3-12-4-19-1-8 3-5 6 6 6 11 1 17-2 13-5zm543 2c0-3-4-8-10-11-5-3-10-1-10 4 0 6 5 11 10 11 6 0 10-2 10-4zm-630-16c0-5-2-10-4-10-3 0-8 5-11 10-3 6-1 10 4 10 6 0 11-4 11-10zm1390 6c0-3-4-8-10-11-5-3-10-1-10 4 0 6 5 11 10 11 6 0 10-2 10-4zm430-4c0-4-5-13-12-20s-9-12-5-12c3 0 16 10 28 23 19 20 21 20 17 2-2-10-21-28-43-39s-62-33-88-48c-26-16-52-26-58-23-5 4-9 1-9-6 0-6-12-23-27-37-16-13-42-38-60-54-32-31-66-31-41-1 7 9 13 21 13 27 0 7 17 27 38 45 34 30 54 32 25 2-11-10-10-11 3-6 9 3 31 26 48 50 22 31 50 53 94 74 66 32 77 36 77 23zm-1880-12c0-5-5-10-11-10-5 0-7 5-4 10 3 6 8 10 11 10 2 0 4-4 4-10zm630-10c0-4 11-5 24-3 13 3 27 0 30-6 4-6 16-11 27-11 10 0 28-9 39-20s22-20 25-20h15c6 0 4-14-5-31s-19-29-22-26c-2 3 0 14 6 24 8 15 7 20-4 20-8 0-12-4-9-9 3-4 0-8-5-8-6 0-11 6-11 13 0 9-2 9-9-1-6-11-20-9-67 8-32 12-67 24-77 27s-16 12-13 19c3 8-1 14-8 14-8 0-16-6-19-12-3-10-7-10-19-1-8 7-18 10-21 6-4-3-7-1-7 6 0 8 7 10 19 6 11-3 22-2 25 3 6 10 86 13 86 2zm140 6c0-3-4-8-10-11-5-3-10-1-10 4 0 6 5 11 10 11 6 0 10-2 10-4zm923-13c-8-3-11-14-7-29s2-24-5-24c-15 0-14 43 1 58 6 6 14 9 17 5 3-3 0-8-6-10zm33-12c-4-6-13-11-19-11-8 0-7 3 2 9 8 5 10 14 6 22-6 11-5 11 5 2 7-6 9-16 6-22zm-481-12c14-22-3-18-26 7s-23 26-2 15c12-6 25-16 28-22zm412-1c-3-8-6-5-6 6-1 11 2 17 5 13 3-3 4-12 1-19zm-807 2c12-7 10-9-8-7-12 0-22 5-22 9 0 11 12 10 30-2zm527-37c-3-10-5-2-5 17s2 27 5 18c2-10 2-26 0-35zm-1147 17c0-5-4-10-9-10-6 0-13 5-16 10-3 6 1 10 9 10 9 0 16-4 16-10zm86-16c-3-8-1-14 3-14 5 0 11 5 13 12 2 6 10 9 16 7 10-3 10-8-1-23s-21-17-55-11c-43 7-49 24-9 26 12 0 16 3 10 6-21 8-15 22 8 16 12-3 18-11 15-19zm1321-11c-3-10-5-4-5 12 0 17 2 24 5 18 2-7 2-21 0-30zm-1447 5c10-6 7-7-10-2-14 3-32 11-40 16-10 6-7 7 10 2 14-3 32-11 40-16zm1467 0c-3-8-6-5-6 6-1 11 2 17 5 13 3-3 4-12 1-19zm-1251-18c8 0 12 5 9 10-3 6-1 10 4 10 6 0 11-7 11-15 0-10 10-15 30-15s30-5 30-15c0-8-5-15-11-15-5 0-8-4-4-9 9-16-13-23-34-11-11 6-18 16-15 24 6 15-43 29-52 15-3-5-9-9-14-9-11 0-2 28 14 49 9 12 12 12 14-2 2-10 10-17 18-17zm544-19c0-13-64 1-83 17-16 14-19 14-32-4-8-10-15-23-15-28s-3-7-6-4c-3 4 0 17 7 30 7 12 12 26 11 30-1 3 25-3 58-14s60-23 60-27zm-1036 23c9-23 1-28-31-18-26 7-27 8-5 12 12 2 20 8 17 13-4 5-2 9 3 9 6 0 13-7 16-16zm151 6c7-12-2-12-30 0-19 8-19 9 2 9 12 1 25-3 28-9zm1262-22c-3-7-5-2-5 12s2 19 5 13c2-7 2-19 0-25zm-1377 7c0-8-4-15-10-15-5 0-10 7-10 15s5 15 10 15c6 0 10-7 10-15zm45 5c3-5 1-10-5-10s-8-4-5-10c7-11-8-14-18-4-7 8 3 34 13 34 5 0 12-4 15-10zm579-15c17-7 43-18 59-24 15-6 27-15 27-21s-6-7-17-1c-10 5-29 13-43 19-26 10-94 36-120 46-8 3 2 3 24 0 21-3 52-11 70-19zm11 15c3-6-1-7-9-4-18 7-21 14-7 14 6 0 13-4 16-10zm86-30c24-11 37-20 29-20-18 1-99 38-84 39 7 1 31-8 55-19zm369 16c0-3-4-8-10-11-5-3-10-1-10 4 0 6 5 11 10 11 6 0 10-2 10-4zm-502-17c23-8 30-15 27-31-7-37-22-43-57-26l-33 16 25 10c14 6 19 11 13 11-7 1-13 8-13 16 0 18-1 18 38 4zm1027-37c-22-19-25-26-14-32 7-5 10-12 7-16-8-7-38 20-38 34 0 6 7 12 15 16 8 3 12 12 9 21-7 17 16 17 28 0 4-6 8-1 9 10 0 14 2 15 6 6 3-9-6-25-22-39zm-1158 32c-3-3-12-4-19-1-8 3-5 6 6 6 11 1 17-2 13-5zm683-4c0-5-4-10-10-10-5 0-10 5-10 10 0 6 5 10 10 10 6 0 10-4 10-10zm-1190-10c0-5-4-10-10-10-5 0-10 5-10 10 0 6 5 10 10 10 6 0 10-4 10-10zm900 6c0-3-4-8-10-11-5-3-10-1-10 4 0 6 5 11 10 11 6 0 10-2 10-4zm150-6c0-5-4-10-10-10-5 0-10 5-10 10 0 6 5 10 10 10 6 0 10-4 10-10zm256-57c94-35 124-50 122-62s4-15 24-13c35 3 46-16 13-24-17-4-47 2-83 15-31 12-90 34-129 48-51 17-73 30-73 41 0 14-2 15-9 3-7-11-13-12-23-3-11 9-17 9-26 0s-12-8-12 6c0 9-4 15-9 11-5-3-13 0-17 6-5 9-11 7-21-6-15-22-18-3-3 24 8 16 16 17 66 9 30-5 112-29 180-55zm314 57c0-5-4-10-10-10-5 0-10 5-10 10 0 6 5 10 10 10 6 0 10-4 10-10zm-925-29c-7-23-25-29-25-8 0 14 21 39 28 33 2-3 1-14-3-25zm-765 13c0-7-27-34-35-34-3 0-1 9 5 20 10 18 30 28 30 14zm35-4c-3-5-10-10-16-10-5 0-9 5-9 10 0 6 7 10 16 10 8 0 12-4 9-10zm774 1c20-13 0-66-24-66-28 0-31 25-3 26 17 1 18 3 6 6-20 5-20 5-12 27 7 18 13 19 33 7zm95-11c25-10 46-24 46-30 0-13-1-13-36 4-16 8-40 17-54 20s-1-5 28-19c28-13 52-27 52-29 0-3-27-5-60-5-56 1-74 9-50 24 6 4 8 10 5 15-7 11 5 40 15 40 5 0 29-9 54-20zm1048 1c24-11 57-31 73-45l30-26-44 15c-24 8-52 15-62 15-11 0-19 5-19 10 0 6-13 10-30 10-33 0-39 14-12 29 9 6 18 11 19 11s21-9 45-19zm-2002-11c0-5-5-10-11-10-5 0-7 5-4 10 3 6 8 10 11 10 2 0 4-4 4-10zm1730 0c0-5-4-10-9-10s-18-3-28-7c-16-6-16-5-4 10 15 19 41 23 41 7zm-1764-27c-10-10-19 5-10 18 6 11 8 11 12 0 2-7 1-15-2-18zm1639 13c8 4 15 2 15-4 0-10-33-22-62-22-11 0-18 8-18 20 0 17 4 18 25 10 14-5 32-7 40-4zm365-20c0-3-4-8-10-11-5-3-10-1-10 4 0 6 5 11 10 11 6 0 10-2 10-4zm-910-32c0-2-11-4-25-4s-25 4-25 9c0 4 11 6 25 3 14-2 25-6 25-8zm707-6c-3-8-6-5-6 6-1 11 2 17 5 13 3-3 4-12 1-19zm240 16c-3-3-12-4-19-1-8 3-5 6 6 6 11 1 17-2 13-5zm83-24c8-5 11-12 8-15-4-4-17 0-30 9-24 17-5 23 22 6zm-430-12c0-10-9-9-35 2-17 8-16 8 8 7 15-1 27-5 27-9zm197 6c-3-3-12-4-19-1-8 3-5 6 6 6 11 1 17-2 13-5zm-67-44c0-5-7-10-16-10-8 0-12 5-9 10 3 6 10 10 16 10 5 0 9-4 9-10zm-130-25c0-18-5-25-20-25-23 0-24 4-10 31 15 27 30 24 30-6zm-326-69c-3-9-12-16-18-16-7 0-23-11-36-25s-29-25-37-25c-7 0-13-3-13-8 0-4-26-27-57-52-31-24-53-39-49-32s2 12-3 12c-6 0-11-4-11-10 0-5-6-10-12-10-16 1 45 56 137 125 88 65 112 76 99 41zm-970-1c-4-8-11-15-16-15-6 0-5 6 2 15 7 8 14 15 16 15s1-7-2-15zm1231 5c29-2 30-2 5-9-14-5-34-6-45-3-11 2-31 4-45 4-22-1-23 0-5 7 11 4 29 7 40 6s34-3 50-5zm211-64c26-14 54-26 64-26 27 0 111-50 104-62-4-6-3-8 3-5 5 3 32-5 59-18 53-27 39-34-19-10-20 8-53 15-73 15-31 0-35-2-24-15 8-10 30-15 61-15 27 0 66-6 86-14 21-8 60-20 87-27 73-19 44-21-59-5-49 8-83 15-75 15 32 3-15 21-50 19-23 0-27-2-12-5 26-5 29-18 5-27-22-9-174 13-193 27-8 7-21 20-28 30-7 9-23 17-35 18-15 0-17 3-7 6 8 3 26 17 39 30 14 12 30 23 34 23 5 0 2 7-6 15-9 8-17 20-19 26-5 14-63 17-95 6-13-5-23-5-23 0 0 15 45 29 87 27 24-1 63-13 89-28zm109 24c-3-5-12-10-18-10-7 0-6 4 3 10 19 12 23 12 15 0zm55 1c0-5-9-7-20-4s-20 7-20 9 9 4 20 4 20-4 20-9zm-1512-12c32-11 43-33 31-59-4-8-10-23-13-33-3-11-15-21-25-24-12-3-17-11-14-19 6-17 10-17-55 0-37 10-50 11-46 3 3-7-2-3-10 7-9 11-17 15-17 8-1-7-2-18-3-24-1-7 3-17 9-21 5-4-11-7-37-5-25 2-44 0-42-3 2-4-8-10-24-14-25-7-26-8-7-16 22-10 14-9-65 5l-35 7 30-15c30-16 30-16-29-13-55 4-57 3-32-10 35-18 33-24-4-13-17 5-28 5-25 0 3-4-7-13-22-19-19-8-21-10-6-7 12 2 37 0 55-4l33-8-30-2c-16-1-56-5-88-9l-58-7 34 30c116 103 178 147 327 233 77 45 113 51 168 32zm-253-18c-3-6-11-11-17-11s-6 6 2 15c14 17 26 13 15-4zm1282 13c-3-3-12-4-19-1-8 3-5 6 6 6 11 1 17-2 13-5zm-1317-33c0-12-29-41-41-41-21 0-24-2-33-23-5-14-10-17-13-9-6 15 16 44 28 37 4-3 16 6 26 19 18 26 33 33 33 17zm1470 0c0-6-5-13-10-16-11-7 3-24 35-43 16-9 17-11 3-12-9 0-18-4-20-9-3-9-139-16-198-11-37 3 41 18 113 21 63 3 79 19 20 19-32 1-35 2-19 11 15 9 16 13 5 20-10 6-8 9 8 9 12 0 25 5 28 10 8 13 35 13 35 1zm447-16c4-4 2-5-4-1-7 4-13 3-13-3 0-11-26-9-37 4-4 4-2 5 5 1 6-4 12-3 12 3 0 11 26 9 37-4zm-690-11c-3-3-12-4-19-1-8 3-5 6 6 6 11 1 17-2 13-5zm70 0c-3-3-12-4-19-1-8 3-5 6 6 6 11 1 17-2 13-5zm688-24c3-5 1-10-4-10-6 0-11 5-11 10 0 6 2 10 4 10 3 0 8-4 11-10zm-647-7c-10-2-28-2-40 0-13 2-5 4 17 4 22 1 32-1 23-4zm-123-13c-3-5-18-9-33-9l-27 1 30 8c17 4 31 8 33 9 2 0 0-3-3-9zm-97-7c-10-2-26-2-35 0-10 3-2 5 17 5s27-2 18-5zm-1271-41c-15-16-27-32-27-38 0-5-9-15-20-22-22-14-27-3-7 17 10 11 9 12-2 6-9-5-12-3-9 6 3 8 9 14 15 14s23 12 38 28c36 36 47 26 12-11zm1221 6c10-10 15-10 22 2s12 12 28-4c17-15 26-16 59-6 50 15 273 23 273 10 0-6-19-10-42-10-59 0-118-11-118-21 0-5 12-9 27-9 40 0 24-7-32-14-42-5-46-4-27 6 32 16 22 32-22 36-21 2-36 0-33-5s-32-9-78-9c-49 0-81 4-78 9s-1 13-8 18c-12 7-11 9 2 9 8 0 21-6 27-12zm-838-14c0-2-9-4-21-4-11 0-18 4-14 10 5 8 35 3 35-6zm800-14c0-5-15-10-32-10-25 0-29 3-18 10 20 13 50 13 50 0zm659-20c45-7 81-16 81-21s-6-9-14-9-16-4-18-9c-1-4-21-11-43-14s-31-3-20 0l20 6-20 8c-16 6-13 8 15 9 32 2 33 3 10 10-32 10-93 12-67 2 12-5 1-11-37-18l-56-10 20 21c11 12 20 27 20 34s6 11 14 8 50-11 95-17zm-259 2c0-9-119-36-127-29-6 7 77 35 105 36 12 1 22-3 22-7zm-1257-9c-7-2-19-2-25 0-7 3-2 5 12 5s19-2 13-5zm812-3c-3-5-16-10-28-9-20 1-20 2 3 9 14 4 26 8 28 9s0-3-3-9zm198 3c-7-2-19-2-25 0-7 3-2 5 12 5s19-2 13-5zm650-10c-7-2-21-2-30 0-10 3-4 5 12 5 17 0 24-2 18-5zm185-10c12-3 22-11 22-19 0-7 12-16 28-20 53-11 70-24 22-18-25 3-50 10-56 15s-15 5-19 1c-5-4-6 0-2 9 4 13-5 19-46 27-29 5-68 8-87 6-31-3-32-2-10 6 24 9 99 5 148-7zm-2266-7c7 4 8 2 4-5-4-6-11-9-16-6s-14-4-20-16c-7-11-14-18-17-15s2 18 12 33c11 16 20 23 23 15 2-7 9-9 14-6zm263 4c3-5 1-10-4-10-6 0-11 5-11 10 0 6 2 10 4 10 3 0 8-4 11-10zm1060 0c-3-5-21-10-38-9-31 1-31 1-7 9 36 11 52 11 45 0zm420 0c14-6 15-9 5-10-8-1-34-3-57-6-47-5-56 2-20 16 28 11 46 11 72 0zm155-20c0-12-8-12-35 0-18 8-17 9 8 9 15 1 27-3 27-9zm175 0c-11-5-29-8-40-8-16 0-15 2 5 8 34 11 60 11 35 0zm-636-10c-20-11-103-31-94-22 10 11 68 30 90 31 17 0 18-1 4-9zm184-7c-9-7-24-13-33-13s-21-5-26-10c-6-6-25-7-43-4-23 5-29 9-19 15 11 7 10 9-1 9-8 0-12 2-9 5 9 9 58-6 52-16-8-13 8-10 29 5 13 10 15 15 5 19-7 3 4 4 25 3 32-1 35-3 20-13zm943-8c6-8 14-12 17-8 4 3 9-1 13-10 3-9 11-14 17-11 10 3 57-63 57-80 0-15-52 24-61 47-6 15-16 30-21 33-6 4-5-3 1-14 15-29 13-41-3-19-8 10-16 18-18 17-11-5-58 14-62 27-3 8-10 12-15 9s-7 2-4 13c3 14 12 17 36 15 18-2 37-11 43-19zm-2629-5c-2-11-14-28-28-37-13-9-28-23-32-30s-14-13-22-13c-7 0-15-6-18-12-2-7-8-10-12-6-7 7 95 118 108 118 4 0 5-9 4-20zm443 10c0-5-4-10-9-10-6 0-13 5-16 10-3 6 1 10 9 10 9 0 16-4 16-10zm800 6c0-2-9-6-20-9s-18-1-14 4c5 9 34 13 34 5zm650-6c12-8 9-10-12-10-16 0-28 5-28 10 0 13 20 13 40 0zm353 3c-7-2-19-2-25 0-7 3-2 5 12 5s19-2 13-5zm64-9c-3-3-12-4-19-1-8 3-5 6 6 6 11 1 17-2 13-5zm-982-14c4-6-7-10-27-9-31 1-32 1-8 9 14 4 26 8 27 9s5-3 8-9zm1035 0c18-12 2-12-25 0-13 6-15 9-5 9 8 0 22-4 30-9zm-2250-20c0-5-17-9-37-9l-38 2 35 7c19 4 36 8 38 9 1 0 2-3 2-9zm115 0c4-6-15-9-52-8l-58 1 45 7c25 4 48 8 52 8 4 1 10-2 13-8zm989-11c-33-13-50-9-24 5 14 8 29 12 34 8 5-3 1-9-10-13zm831 11c3-5-1-10-10-10s-13 5-10 10c3 6 8 10 10 10s7-4 10-10zm465-10c8-5 11-10 5-10-5 0-17 5-25 10s-10 10-5 10c6 0 17-5 25-10zm-813-6c-3-3-12-4-19-1-8 3-5 6 6 6 11 1 17-2 13-5zm1046-14c8-11 16-17 20-14 3 3 15 1 26-6 23-12 77-110 61-110-5 0-10 5-10 11 0 5-4 8-9 4-5-3-16 4-24 15-7 11-16 17-20 14-3-3-13 7-23 23-9 15-25 40-36 56-10 15-14 27-9 27s16-9 24-20zm-2629-16c16-11 9-13-52-11-63 2-69 4-56 18 16 18 78 14 108-7zm1876 22c0-2-7-7-16-10-8-3-12-2-9 4 6 10 25 14 25 6zm-2403-43c-3-10-5-4-5 12 0 17 2 24 5 18 2-7 2-21 0-30zm616 30c-7-2-19-2-25 0-7 3-2 5 12 5s19-2 13-5zm1534 1c-3-3-12-4-19-1-8 3-5 6 6 6 11 1 17-2 13-5zm433 2c0-3-4-8-10-11-5-3-10-1-10 4 0 6 5 11 10 11 6 0 10-2 10-4zm-1017-16c15-1-10-15-42-25-16-5-21-4-17 4 4 6 1 11-6 12-7 0-4 4 7 9s26 7 33 4c8-2 19-4 25-4zm1072 0c3-5 16-10 28-11 12 0 54-11 92-24 61-21 65-24 30-21-45 4-125 25-139 38-6 4-21 8-35 8-21 0-23 2-11 10 19 12 27 12 35 0zm-2541-42c-3-5-12-1-20 9-20 27-17 39 6 18 11-10 17-22 14-27zm1636 38c0-2-11-6-25-8-14-3-25-1-25 3 0 5 11 9 25 9s25-2 25-4zm73-3c-7-2-19-2-25 0-7 3-2 5 12 5s19-2 13-5zm297-3c0-5-9-10-20-10s-20 5-20 10c0 6 9 10 20 10s20-4 20-10zm85 0c-3-5-14-10-23-9-14 0-13 2 3 9 27 11 27 11 20 0zm170 0c-3-5-13-10-21-10s-12 5-9 10c3 6 13 10 21 10s12-4 9-10zm405 0c13-9 13-10 0-10-8 0-22 5-30 10-13 9-13 10 0 10 8 0 22-5 30-10zm-2137-7c-13-2-33-2-45 0-13 2-3 4 22 4s35-2 23-4zm807 3c0-3-4-8-10-11-5-3-10-1-10 4 0 6 5 11 10 11 6 0 10-2 10-4zm847-12c-3-3-12-4-19-1-8 3-5 6 6 6 11 1 17-2 13-5zm1060-52c38-23 61-42 58-50s0-10 7-6c8 5 9 2 5-10-4-9-3-14 2-11 13 7 24-12 16-26-5-7-13-5-24 5-10 9-21 13-24 10-4-4-9 1-13 10-3 9-10 13-15 11-4-3-19 10-31 29-13 19-33 41-45 47s-24 18-28 27c-7 19 12 11 92-36zm-3027 34c0-3-4-8-10-11-5-3-10-1-10 4 0 6 5 11 10 11 6 0 10-2 10-4zm211-4c17-7 2-11-59-16-45-3-96-9-114-13-19-3-30-2-25 3 8 9 94 27 148 32 15 1 37-2 50-6zm1233-4c-15-7-28-7-40 1-16 9-12 10 21 10 35 0 37-2 19-11zm136 2c-8-5-22-10-30-10-13 0-13 1 0 10 8 5 22 10 30 10 13 0 13-1 0-10zm835-11c13-13-3-10-45 7l-35 14 35-6c19-3 39-10 45-15zm-2605 4c0-5-5-15-10-23-8-12-10-11-10 8 0 12 5 22 10 22 6 0 10-3 10-7zm1209-33c-19-16-46-34-61-41-16-6-28-17-28-24 0-18-39-65-53-64-7 0-2 7 11 16 12 8 22 22 22 29 0 14-17 3-62-38-10-10-20-18-23-18-2 0-1 8 2 18 6 15 5 15-10 4-25-21-58-82-44-82 7 0-1-7-16-15s-34-12-42-8c-8 3-15 1-15-3 0-10-55-68-114-122-35-33-36-33-36-10 0 14 13 37 30 53 16 15 27 31 25 35-7 11 83 98 122 119 13 6 22 17 20 24-1 7 7 11 21 9 12-2 22 2 22 8s-5 8-12 4-8-3-4 4c4 6 13 9 21 5 19-7 47 16 38 31-4 6 1 5 10-3 11-9 17-10 17-2 0 6 7 11 15 11s15 8 15 18c0 14 2 15 10 2 9-14 11-13 14 9 2 19 17 25 27 11 7-12 10-11 15 7 4 14 20 26 48 35 22 8 43 13 45 11 3-2-11-17-30-33zm171 30c0-5-7-10-16-10-8 0-12 5-9 10 3 6 10 10 16 10 5 0 9-4 9-10zm594-10c-10-4-21-6-24-3-8 7 24 22 34 16 5-4 1-10-10-13zm257 4c-18-8-36-13-39-10-6 7 37 25 58 25 8-1 0-7-19-15zm324-5 40-19-34 6c-19 4-48 12-65 20-29 12-30 13-6 13 14 0 43-9 65-20zm245 11c13-9 13-10 0-10-8 0-22 5-30 10-13 9-13 10 0 10 8 0 22-5 30-10zm-2697-30c-7-28-13-25-13 6 0 14 4 23 9 20s7-15 4-26zm414 17c-1-5-6-8-10-8-4 1-17 1-29 1-18 0-20 2-9 9 18 12 52 10 48-2zm1410 7c-3-3-12-4-19-1-8 3-5 6 6 6 11 1 17-2 13-5zm-1478-8c-2-2-26-6-53-9-30-3-43-1-35 4 13 8 97 13 88 5zm1196-6c-27-12-35-12-35 0 0 6 12 10 28 9 24 0 25-1 7-9zm1148-12c10-5 17-11 15-14-6-5-81 16-93 27-11 11 51 1 78-13zm106 11c17-6 31-15 31-20s-15-2-32 7c-53 27-53 32 1 13zm-2880-53c-9-8-10-7-5 7 3 10 7 24 7 30 1 7 3 4 6-7 3-10-1-23-8-30zm1706 34c-3-5-25-10-48-10-31 0-38 3-27 10 20 13 83 13 75 0zm158 3c-7-2-21-2-30 0-10 3-4 5 12 5 17 0 24-2 18-5zm54 1c-3-3-12-4-19-1-8 3-5 6 6 6 11 1 17-2 13-5zm1048-4c3-5 2-10-4-10-5 0-13 5-16 10-3 6-2 10 4 10 5 0 13-4 16-10zm-2755-10 25-8-25-2c-23-1-23-2-5-10l20-9-20 1c-29 0-75 16-52 17 10 1 15 6 12 11-7 11 9 11 45 0zm245 0c-3-5-11-10-16-10-6 0-7 5-4 10 3 6 11 10 16 10 6 0 7-4 4-10zm880-4c-66-21-100-28-92-19 10 10 85 31 112 31 11 0 2-6-20-12zm640 4c3-5-1-10-9-10-9 0-16 5-16 10 0 6 4 10 9 10 6 0 13-4 16-10zm1090-21c27-5 1-6-75-3-63 3-118 9-123 13-9 9 145 2 198-10zm-2735 1c0-5-6-10-14-10s-18 5-21 10c-3 6 3 10 14 10 12 0 21-4 21-10zm1254-1c-5-9 1-10 22-5 16 4 49 9 74 12 42 3 44 2 25-12-15-11-41-14-107-12-87 3-115 13-60 21 50 7 53 7 46-4zm321 1c11-1 2-6-20-12-22-5-53-7-68-4-17 4-26 2-22-4 3-6 1-10-6-10s-10-2-8-4 30 0 62 3c31 4 57 3 57-1 0-11 48-10 54 1 4 5-3 7-14 4-29-8-24 6 7 18s44 2 37-29c-5-18-13-22-50-22-23 0-45 4-48 8-3 5-74 8-158 6-147-2-155 3-35 21 20 3 42 11 49 18 10 11 78 14 163 7zm895 0c0-7-14-8-37-4-52 9-54 14-5 14 23 0 42-5 42-10zm555-36c36-20 65-39 65-43 0-3-9-14-19-23-17-15-21-15-32-2-6 8-14 12-17 9-7-7-32 15-32 29 0 6 7 2 15-8 8-11 15-16 15-10 0 5-9 20-19 34-16 20-19 21-18 6 1-10-4-21-12-24-9-3-11 1-7 16 4 11 2 23-4 27-10 6-14 25-5 25 2 0 34-16 70-36zm-2074 17c-12-8-12-10 0-14 8-2 5-3-5-1-11 2-25 0-30-5-6-4-22-5-36-1-22 6-20 8 20 17 58 14 68 15 51 4zm74-1c-3-5-14-10-23-9-14 0-13 2 3 9 27 11 27 11 20 0zm120 0c-28-12-37-12-30 0 3 6 16 10 28 9 21 0 21-1 2-9zm1478 3c-7-2-19-2-25 0-7 3-2 5 12 5s19-2 13-5zm197-13c10-6-9-7-55-3-38 3-72 7-74 9-10 9 115 3 129-6zm-1770-24c0-3-53-16-117-31-65-14-145-33-177-40-63-15-85-13-45 5 61 27 339 81 339 66zm-220-15c0-5-13-11-30-13-36-5-39-1-7 12 29 12 37 12 37 1zm-280-146c-7-8-17-15-22-15-6 0-5 7 2 15s17 15 22 15c6 0 5-7-2-15zm-587-50c-7-21-13-19-13 6 0 11 4 18 10 14 5-3 7-12 3-20zm57-24c0-5 9-11 21-14 13-4 18-10 13-18s-3-10 5-5c20 12 50-23 47-53-2-14-1-18 1-8 6 25 14 22 57-22 32-33 36-42 27-59-15-28-14-55 1-46 7 5 9 2 5-8-3-9 0-21 6-27 8-8 8-11-2-11-15 0-44 31-69 73-9 15-20 27-24 27s-8 10-8 22-3 19-6 15c-13-13-46 33-51 73-4 29-10 40-19 36-8-3-14-1-14 5s-4 7-10 4-7 1-4 9c7 17 24 22 24 7zm348-58c-6-16-18-35-25-43-11-12-13-12-13 3 0 9 5 17 10 17 6 0 10 6 10 13 0 11 19 37 27 37 1 0-3-12-9-27z"/><path d="m5135 3560c-13-6-5-7 25-3 25 3 47 7 49 9 9 8-55 2-74-6z"/><path d="m2657 2779c7-7 15-10 18-7s-2 9-12 12c-14 6-15 5-6-5z"/><path d="m4989 2553c-13-16-12-17 4-4 9 7 17 15 17 17 0 8-8 3-21-13z"/><path d="m4100 2676c0-2 8-10 18-17 15-13 16-12 3 4s-21 21-21 13z"/><path d="m5103 2393c4-3 1-13-6-21-11-13-9-14 10-2 22 14 22 30 1 30-6 0-8-3-5-7z"/><path d="m4307 2265c31-14 61-44 32-33-39 16-51 18-26 3 15-9 32-13 38-9 6 3 26-9 45-27s30-35 25-39c-5-3-1-17 10-30l19-25-7 35c-7 40-30 80-46 80-6 0-20 11-32 25-12 15-34 27-55 30l-35 5z"/><path d="m4068 2213c6-2 18-2 25 0 6 3 1 5-13 5s-19-2-12-5z"/><path d="m4158 2203c6-2 18-2 25 0 6 3 1 5-13 5s-19-2-12-5z"/><path d="m4669 1607c5-5 40-11 78-13 69-3 60 1-35 15-34 5-50 5-43-2z"/><path d="m4653 1583c9-2 23-2 30 0 6 3-1 5-18 5-16 0-22-2-12-5z"/><path d="m3300 1605c-19-7-28-14-20-14s29 6 45 14c39 17 21 18-25 0z"/><path d="m5357 1402c3-12 9-25 14-28 14-8 11 10-6 32-13 18-14 18-8-4z"/><path d="m5420 1374c0-6 7-19 16-30 14-18 14-18 3 6-14 31-19 36-19 24z"/><path d="m5522 1296c7-15 14-23 16-17s12 1 23-11c19-23 19-23 2 9-10 18-20 28-22 22-1-5-9-2-17 8-13 16-13 15-2-11z"/><path d="m5665 1223c10-18 22-30 26-27 4 2 12-4 18-13 6-10 10-13 10-8 1 12-27 46-53 65-19 15-19 15-1-17z"/><path d="m2932 780c0-14 2-19 5-12 2 6 2 18 0 25-3 6-5 1-5-13z"/><path d="m4237 3626c-74-22-104-36-78-36 10 0 98 26 171 50 58 20-18 8-93-14z"/><path d="m4417 3594c-4-4-19-8-34-9-16-2-53-15-83-29s-47-24-37-21c67 19 69 19 63-2-8-24 10-34 39-22 19 7 19 8-2 8-16 1-20 6-16 21 6 22 19 27 25 9 3-8 8-7 18 2 8 8 22 14 30 14s16 8 18 18c3 17-9 23-21 11z"/><path d="m4110 3580c-12-8-10-10 8-10 13 0 20 4 17 10-7 12-6 12-25 0z"/><path d="m4038 3549c-21-11-38-22-38-24 0-5 79 32 89 41 12 11-18 1-51-17z"/><path d="m4450 3556c0-8-7-17-16-20-9-4-14-9-10-13 3-3 16 2 28 13 21 19 21 19 15-4-3-15-1-22 6-19 7 2 11 12 9 22-3 13 1 16 12 12 9-4 16-2 16 2 0 10-24 21-46 21-8 0-14-6-14-14z"/><path d="m4557 3543c-12-12-7-22 8-17 8 4 15 2 15-4 0-5-7-12-15-16-8-3-15-10-15-15 0-6 13-2 30 7 32 18 39 32 15 32-8 0-15 5-15 10 0 11-13 13-23 3z"/><path d="m4210 3520c-9-6-10-10-3-10 6 0 15 5 18 10 8 12 4 12-15 0z"/><path d="m4266 3515c-16-12-17-15-4-15 8 0 21 7 28 15 16 19 1 19-24 0z"/><path d="m4612 3499c-21-33 0-45 37-23 16 10 28 21 25 26-3 4-12 1-20-7-9-8-21-15-27-15-7 0-4 7 6 14 20 16 22 26 4 26-7 0-18-10-25-21z"/><path d="m5398 3513c7-3 16-2 19 1 4 3-2 6-13 5-11 0-14-3-6-6z"/><path d="m4220 3500c-8-5-12-12-9-15 4-3 12 1 19 10 14 17 11 19-10 5z"/><path d="m4498 3503c7-3 16-2 19 1 4 3-2 6-13 5-11 0-14-3-6-6z"/><path d="m5333 3503c9-2 25-2 35 0 9 3 1 5-18 5s-27-2-17-5z"/><path d="m4143 3487c-15-6-23-19-23-34 0-13-6-23-14-23-7 0-19-7-27-16-11-13-7-13 24 2 22 11 36 23 33 31-3 7 5 19 16 27 27 19 21 27-9 13z"/><path d="m4190 3464c0-8 5-12 10-9 6 4 8 11 5 16-9 14-15 11-15-7z"/><path d="m4060 3450c-8-5-10-10-5-10 6 0 17 5 25 10s11 10 5 10c-5 0-17-5-25-10z"/><path d="m4840 3446c-8-11-8-15 2-19 7-3-2-8-21-13-26-5-30-9-17-16 11-6 22-3 37 11 12 11 27 17 35 14 21-8 17 10-5 24-15 10-22 9-31-1z"/><path d="m4490 3440c0-5 5-10 10-10 6 0 10 5 10 10 0 6-4 10-10 10-5 0-10-4-10-10z"/><path d="m4425 3430c-3-5-1-10 4-10 6 0 11 5 11 10 0 6-2 10-4 10-3 0-8-4-11-10z"/><path d="m4913 3419c17-10 25-40 10-38-5 1-19 1-33 0-21-1-22-3-10-15 19-19 89-23 117-8 26 14 33 15 33 3 0-5-10-11-22-15-18-4-20-8-11-17 10-10 17-9 31 4 10 9 23 17 28 17s2-4-6-10c-24-15-6-21 23-7 28 12 37 29 15 26-19-2-58 12-58 21 0 13-52 22-63 11-16-16-27-13-27 8 0 10-7 22-16 25-24 9-31 7-11-5zm55-56c-10-2-26-2-35 0-10 3-2 5 17 5s27-2 18-5z"/><path d="m3980 3400c-15-12-18-18-7-14 20 7 21 1 6-27-10-19-9-19 10-9 12 6 21 17 21 26 0 8 6 14 13 13 27-3 37 2 37 19 0 14-2 14-9 3-5-8-19-15-30-16-23-2-28 10-8 18 6 3 8 6 2 6-5 0-21-8-35-19z"/><path d="m4895 3400c3-5 8-10 11-10 2 0 4 5 4 10 0 6-5 10-11 10-5 0-7-4-4-10z"/><path d="m4505 3390c3-5 8-10 11-10 2 0 4 5 4 10 0 6-5 10-11 10-5 0-7-4-4-10z"/><path d="m4586 3369c-35-27-32-67 6-88 25-14 29-14 51 7 13 12 28 22 34 22s17 7 24 17c13 15 12 15-8 5-29-16-31-15-35 9-2 12-12 28-24 36-18 12-24 11-48-8z"/><path d="m5643 3363c9-2 25-2 35 0 9 3 1 5-18 5s-27-2-17-5z"/><path d="m3930 3345c-7-9-10-18-7-21s10 4 17 15c13 25 8 27-10 6z"/><path d="m5490 3352c8-5 26-13 40-16 17-5 20-4 10 2-8 5-26 13-40 16-17 5-20 4-10-2z"/><path d="m4245 3340c-3-6 1-7 9-4 18 7 21 14 7 14-6 0-13-4-16-10z"/><path d="m4816 3334c-3-8 1-14 9-14 20 0 28 17 11 23-8 3-17-1-20-9z"/><path d="m5116 3335c-3-8-16-15-28-16h-23l23-9c29-12 52-3 52 21 0 23-15 25-24 4z"/><path d="m4480 3328c0-5 11-8 24-8 14 0 27 3 29 8 3 4-8 7-24 7s-29-3-29-7z"/><path d="m4770 3315c-7-8-8-15-2-15 5 0 15 7 22 15s8 15 2 15c-5 0-15-7-22-15z"/><path d="m4296 3311c-4-5 3-7 14-4 23 6 26 13 6 13-8 0-17-4-20-9z"/><path d="m5155 3310c3-5 0-10-7-10s20-12 61-26 80-33 87-42c12-15 12-15 8 5-4 16 0 23 16 28 18 6 20 9 9 16-24 15-52 11-45-7 4-11 1-14-12-12-9 2-16 11-14 20 4 26-33 41-59 26-17-10-23-10-26 0-3 6-9 12-14 12-6 0-7-4-4-10zm95-16c0-2-9-4-21-4-11 0-18 4-14 10 5 8 35 3 35-6z"/><path d="m4725 3290c3-5 8-10 11-10 2 0 4 5 4 10 0 6-5 10-11 10-5 0-7-4-4-10z"/><path d="m4398 3273c7-3 16-2 19 1 4 3-2 6-13 5-11 0-14-3-6-6z"/><path d="m4793 3260c-18-11-39-17-46-15-8 4-13-2-13-14 0-13 4-17 11-11 5 4 30 20 55 34s41 26 35 26c-5 0-25-9-42-20z"/><path d="m5878 3273c7-3 16-2 19 1 4 3-2 6-13 5-11 0-14-3-6-6z"/><path d="m3848 3263c7-3 16-2 19 1 4 3-2 6-13 5-11 0-14-3-6-6z"/><path d="m4679 3253c-13-16-12-17 4-4s21 21 13 21c-2 0-10-8-17-17z"/><path d="m5110 3250c-8-16-8-18 4-14 17 6 30 34 16 34-5 0-14-9-20-20z"/><path d="m5373 3258c26-9 27-11 10-23-10-7-20-9-23-5-3 5-12 5-19 1-9-6 3-14 40-25 48-14 55-14 65-1 12 16 34 20 34 6 0-22-30-32-75-26-38 6-44 5-39-8 3-10-3-20-17-27-20-11-21-13-5-22s16-11-1-24c-10-8 16 0 57 17s96 38 123 46c26 9 47 20 47 25 0 11-17 10-25-2-9-15-28-12-22 4 4 9-20 23-76 45-45 17-86 31-92 30-5 0 3-5 18-11zm67-40c0-6-7-7-16-4s-18 6-20 6c-3 0-3 4 1 10 7 11 35 2 35-12zm66-37c-4-6-14-11-22-11-12 0-12 3-2 20 7 11 16 16 21 11s6-14 3-20zm-101-30c-3-6-11-11-17-11s-6 6 2 15c14 17 26 13 15-4z"/><path d="m4500 3250c0-6-10-15-22-21l-23-10 23 5c19 3 22 0 22-24 0-16 5-32 10-35 15-9 2-25-19-25-10 0-26-9-36-20-19-21-19-19 13-82 2-3-6-9-17-13-12-3-24-18-28-33-3-15-13-33-22-40-9-8-10-11-4-7 7 3 26-4 43-17l30-22 30 33c33 35 38 62 15 81-16 13-5 30 29 43 18 7 19 38 2 78-5 12 0 18 23 22 25 5 31 12 31 32 0 47-17 65-60 65-22 0-40-5-40-10zm70-25c0-8-4-15-10-15-5 0-7 7-4 15 4 8 8 15 10 15s4-7 4-15z"/><path d="m4626 3226c-23-36-20-44 5-12 12 15 19 29 16 32-2 2-12-7-21-20z"/><path d="m4925 3215c-52-32-40-32 16 0 24 14 40 25 34 25-5 0-28-11-50-25z"/><path d="m5655 3209c-4-6-5-12-2-15 2-3 7 2 10 11 7 17 1 20-8 4z"/><path d="m4789 3187c-14-12-35-27-45-34-18-11-18-11 2-6 12 2 35 18 50 34 33 34 30 37-7 6z"/><path d="m5244 3194c-18-14-18-15 4-4 12 6 22 13 22 15 0 8-5 6-26-11z"/><path d="m4671 3180c-17-15-19-20-7-20 8 0 20 9 26 20 13 25 11 25-19 0z"/><path d="m3765 3180c3-5 8-10 11-10 2 0 4 5 4 10 0 6-5 10-11 10-5 0-7-4-4-10z"/><path d="m4854 3168-19-23 23 19c12 11 22 21 22 23 0 8-8 2-26-19z"/><path d="m3726 3172c-3-6-1-14 5-17 15-10 25 3 12 16-7 7-13 7-17 1z"/><path d="m2940 3166c0-2 9-6 20-9s18-1 14 4c-5 9-34 13-34 5z"/><path d="m4337 3140c-15-16-23-30-19-30 5 0 18 14 30 30 13 17 21 30 19 30s-16-13-30-30z"/><path d="m3025 3150c11-5 34-8 50-8 29 0 29 0 5 8-14 4-36 8-50 8-23 1-23 0-5-8z"/><path d="m4205 3151c-3-5 0-13 6-17 7-4 9-3 5 4-3 5 0 13 6 15 9 4 10 6 1 6-6 1-14-3-18-8z"/><path d="m4450 3145c-8-9-8-15-2-15 12 0 26 19 19 26-2 2-10-2-17-11z"/><path d="m4622 3148c-7-7-12-20-12-30s-6-18-14-18-17-7-20-16c-9-25-8-25 19 0 14 13 25 30 25 38s5 19 12 26 10 12 7 12-10-5-17-12z"/><path d="m5036 3141c-4-5 3-7 14-4 23 6 26 13 6 13-8 0-17-4-20-9z"/><path d="m2405 3130c3-5 8-10 11-10 2 0 4 5 4 10 0 6-5 10-11 10-5 0-7-4-4-10z"/><path d="m2430 3130c0-5 9-10 21-10 11 0 17 5 14 10-3 6-13 10-21 10s-14-4-14-10z"/><path d="m5125 3130c-3-6 1-7 9-4 18 7 21 14 7 14-6 0-13-4-16-10z"/><path d="m5263 3114c-34-39-27-53 7-16 17 18 30 35 30 38 0 11-17 1-37-22z"/><path d="m2374 3115c11-8 25-15 30-15 6 0 2 7-8 15-11 8-25 15-30 15-6 0-2-7 8-15z"/><path d="m4775 3120c-19-8-19-9 2-9 12-1 25 4 28 9 7 12-2 12-30 0z"/><path d="m4985 3120c-3-5 1-10 10-10s13 5 10 10c-3 6-8 10-10 10s-7-4-10-10z"/><path d="m5070 3099c-22-18-22-19-3-10 12 6 25 16 28 21 9 15 3 12-25-11z"/><path d="m5293 3090c-14-16-32-30-38-30-7 0-19-8-26-17-9-11 4-7 39 12 28 15 50 30 47 33s0 11 6 19c23 27-2 12-28-17z"/><path d="m2474 3098c-4-7-3-8 5-4 7 5 28-3 49-16 47-31 82-50 82-44s-112 76-122 76c-4 0-10-5-14-12z"/><path d="m3107 3090c3-11 14-20 24-20 18 0 18 1-1 20-11 11-22 20-24 20s-2-9 1-20z"/><path d="m4275 3100c-3-6 1-7 9-4 18 7 21 14 7 14-6 0-13-4-16-10z"/><path d="m5169 3103c-1-1-2-8-3-14 0-7-8-15-16-18s-27-14-43-25c-20-14-25-22-17-31s4-17-15-29c-23-15-25-15-25 0 0 23-13 9-15-16-2-31 20-24 61 20 20 21 41 37 47 33 11-7-43-57-102-95-48-30-76-25-50 9 8 11 3 9-12-4-27-24-45-30-33-12 4 6-23-12-59-40-59-47-65-54-54-71 10-18 13-18 34-4 32 20 29 8-4-21-25-21-29-22-35-7-5 14-7 12-7-5-1-13-6-23-12-23-5 0-8-4-5-8 6-11-30-52-46-52-6 0-4 8 5 18 20 22 23 39 4 23-21-17-28-2-9 20 12 13 18 15 23 7s12-2 19 16c6 16 9 30 7 32s-20-14-41-35c-31-31-35-42-28-62 12-36 9-54-10-54-23 0-35-15-19-24 10-7 11-13 2-30-20-36-5-23 24 22 65 98 236 253 372 336 46 28 51 35 48 61-3 23 0 30 13 30 21 1 55 26 58 43 1 9-9 14-27 14-16 0-30-2-30-4zm-49-73c0-5-5-10-11-10-5 0-7 5-4 10 3 6 8 10 11 10 2 0 4-4 4-10zm-164-129c11 9 18 9 25 2 8-8 5-15-11-23-13-7-33-24-46-39-17-20-25-23-34-15-7 7-9 21-5 35 7 20 8 21 17 5 8-13 13-15 24-5 8 6 14 16 14 21 0 6-7 5-15-2-18-15-20-5-2 14 6 8 14 10 15 5 2-6 10-5 18 2z"/><path d="m4893 2845c0-8 4-12 9-9s6 10 3 15c-9 13-12 11-12-6z"/><path d="m3190 3089c0-6 6-9 13-6 6 2 20 0 30-5s17-5 17 0c0 6-10 12-22 16-32 8-38 7-38-5z"/><path d="m3663 3082c-9-15-8-19 3-19 8 0 14 9 14 19s-1 18-3 18c-1 0-7-8-14-18z"/><path d="m4358 3089c-10-5-22-20-28-32-11-22-11-22 6 1 9 12 23 22 30 22 8 0 14 5 14 10 0 12 0 12-22-1z"/><path d="m4654 3078-19-23 23 19c12 11 22 21 22 23 0 8-8 2-26-19z"/><path d="m2888 3083c7-3 16-2 19 1 4 3-2 6-13 5-11 0-14-3-6-6z"/><path d="m2950 3079c0-4 7-10 16-13 21-8 21-8 21 7 0 7-9 13-19 13s-18-3-18-7z"/><path d="m4234 3068-19-23 23 19c21 18 27 26 19 26-2 0-12-10-23-22z"/><path d="m4923 3071c-44-24-63-41-63-54 0-6 7-1 16 11 8 12 21 22 27 22 7 0 23 9 37 20 31 24 25 24-17 1z"/><path d="m3860 3050c-6-11-7-20-2-20 6 0 12 9 15 20s3 20 1 20-8-9-14-20z"/><path d="m4680 3044c-5-12-20-30-34-42-14-11-26-26-26-34 0-16-51-68-66-68-12 0-44-32-44-43 0-4 5-7 10-7 6 0 10 7 10 15 0 9 8 18 18 22 24 8 92 75 86 84-2 4 1 11 7 15 8 4 9 3 5-4s-2-12 4-12c7 0 9 7 6 15-3 9 1 18 9 21s17 15 21 26c3 11 12 17 19 14 8-3 19 1 25 9 8 10 5 13-16 11-17 0-29-9-34-22z"/><path d="m4774 3038-29-33 33 29c30 28 37 36 29 36-2 0-16-15-33-32z"/><path d="m4101 3044c0-11 3-14 6-6 3 7 2 16-1 19-3 4-6-2-5-13z"/><path d="m2930 3040c0-5 5-10 11-10 5 0 7 5 4 10-3 6-8 10-11 10-2 0-4-4-4-10z"/><path d="m4580 3008-33-43 44 40c24 22 46 41 48 43 2 1-2 2-11 2-8 0-30-19-48-42z"/><path d="m2990 3029c0-5 5-7 11-3 8 4 9-1 4-17-7-21-6-22 9-10 12 10 14 17 5 27-14 17-29 18-29 3z"/><path d="m3311 3037c17-14 79-48 79-44 0 7-65 47-75 47-5 0-6-1-4-3z"/><path d="m2637 3011c12-12 34-26 48-31 15-6 24-14 21-18-5-9 12-19 69-41l30-12-25 21c-14 11-31 20-38 20-8 0-21 8-30 19-10 10-35 29-57 41-39 23-40 23-18 1z"/><path d="m3769 3022c-10-4-14-13-10-24 5-15 8-13 18 7 6 14 10 25 10 24-1 0-9-3-18-7z"/><path d="m4285 3020c-3-5-2-10 4-10 5 0 13 5 16 10 3 6 2 10-4 10-5 0-13-4-16-10z"/><path d="m5175 3020c-8-13 5-13 25 0 13 8 13 10-2 10-9 0-20-4-23-10z"/><path d="m4251 2997c-13-21-12-21 5-5 10 10 16 20 13 22-3 3-11-5-18-17z"/><path d="m4355 2994c-18-16-22-22-9-15 18 9 53 42 43 41-2-1-17-12-34-26z"/><path d="m3054 2995c8-8 21-15 28-15 8 1 6 6-6 15-26 20-42 19-22 0z"/><path d="m3900 3000c-9-6-10-10-3-10 6 0 15 5 18 10 8 12 4 12-15 0z"/><path d="m4725 2989c-11-17 1-21 15-4 8 9 8 15 2 15s-14-5-17-11z"/><path d="m4780 2953c-32-34-35-39-10-17 19 17 46 38 60 47 15 11 19 17 9 17-8 0-35-21-59-47z"/><path d="m4007 2983c-12-12-7-22 8-17 8 4 15 10 15 15 0 11-14 12-23 2z"/><path d="m3220 2970c0-5 5-10 11-10 5 0 7 5 4 10-3 6-8 10-11 10-2 0-4-4-4-10z"/><path d="m3420 2977c0-3 12-12 26-22 15-9 23-12 20-6-7 11-46 35-46 28z"/><path d="m4121 2971c-7-5-12-14-10-20s10-2 17 9c14 22 13 23-7 11z"/><path d="m3647 2964c7-3 9-12 6-20-6-16 13-19 23-3 7 11-13 29-31 28-5 0-5-3 2-5z"/><path d="m3096 2952c-3-6 5-17 19-26 29-19 33-7 6 18-11 10-22 13-25 8z"/><path d="m3730 2945c0-8 0-18-1-22 0-4 3-9 8-10 4-2 9 8 9 22 1 14-2 25-7 25s-9-7-9-15z"/><path d="m4829 2941c-13-11-22-22-19-24 3-3 16 5 29 19 28 29 22 31-10 5z"/><path d="m4183 2937c1-5 6-8 10-8 4 1 14 1 22 1s15 4 15 10c0 5-11 9-25 8s-24-6-22-11z"/><path d="m3190 2925c7-8 10-20 7-27-3-9 5-13 24-13h29l-31 28c-35 30-49 36-29 12z"/><path d="m4040 2922c0-4 4-13 9-20 7-11 9-11 14 1 3 9-1 18-9 21s-14 2-14-2z"/><path d="m4337 2888c-11-20-22-28-33-24-8 3-13 2-9-3 3-5 1-21-5-36-7-17-7-24 0-20 6 3 10 13 10 21s7 17 15 21c15 5 50 61 43 68-2 2-11-10-21-27z"/><path d="m4634 2888-19-23 23 19c12 11 22 21 22 23 0 8-8 2-26-19z"/><path d="m3926 2885c-3-8-1-15 4-15 6 0 10 7 10 15s-2 15-4 15-6-7-10-15z"/><path d="m4160 2880c0-5-6-10-14-10s-17-7-20-16c-9-24-7-31 5-11 5 9 17 17 24 17 8 0 15 7 15 15s-2 15-5 15-5-4-5-10z"/><path d="m4686 2875c-11-8-16-15-10-15 5 0 18 7 28 15 11 8 16 15 10 15-5 0-18-7-28-15z"/><path d="m3775 2870c3-5 8-10 11-10 2 0 4 5 4 10 0 6-5 10-11 10-5 0-7-4-4-10z"/><path d="m4201 2835c-17-20-31-39-31-43s16 11 35 32c19 22 35 41 35 43 0 9-11 0-39-32z"/><path d="m2855 2847c48-33 75-49 75-44 0 6-77 57-87 57-4 0 1-6 12-13z"/><path d="m3303 2843c20-23 23-37 5-27-7 4-10 3-5-1 12-14 47-13 47 1 0 8-15 21-32 30-33 17-33 16-15-3z"/><path d="m2900 2846c0-2 7-7 16-10 8-3 12-2 9 4-6 10-25 14-25 6z"/><path d="m3915 2840c3-5 8-10 11-10 2 0 4 5 4 10 0 6-5 10-11 10-5 0-7-4-4-10z"/><path d="m4705 2830c-3-5-1-10 4-10 6 0 11 5 11 10 0 6-2 10-4 10-3 0-8-4-11-10z"/><path d="m3867 2809c7-7 15-10 18-7s-2 9-12 12c-14 6-15 5-6-5z"/><path d="m3768 2803c7-3 16-2 19 1 4 3-2 6-13 5-11 0-14-3-6-6z"/><path d="m2940 2797c0-3 44-34 97-68 123-81 123-81 123-75 0 3-44 34-97 69-123 79-123 79-123 74z"/><path d="m4585 2780c-3-5-1-10 4-10 6 0 11 5 11 10 0 6-2 10-4 10-3 0-8-4-11-10z"/><path d="m3356 2768c3-4 17-8 31-8 15 0 23 3 19 8-10 10-56 10-50 0z"/><path d="m3623 2773c-21-8-15-22 7-16 11 3 20 9 20 14 0 10-8 10-27 2z"/><path d="m4650 2760c-13-11-19-20-13-20 5 0 18 9 28 20s16 20 13 20-15-9-28-20z"/><path d="m3037 2759c6-8 26-23 45-33 21-13 29-14 21-5-6 8-26 23-45 33-21 13-29 14-21 5z"/><path d="m3433 2756c6-14 3-17-9-12-14 5-15 4-4-9 7-8 21-15 31-15 11 0 19-4 19-10 0-5 7-10 16-10 13 0 13 2 0 21-8 11-24 28-37 37-21 15-22 14-16-2z"/><path d="m4567 2741c-4-17-3-21 5-13 5 5 8 16 6 23-3 8-7 3-11-10z"/><path d="m4610 2705c-7-8-9-15-6-15 4 0 14 7 22 15 9 8 11 15 6 15s-15-7-22-15z"/><path d="m3510 2706c0-3 22-17 49-31 36-20 47-31 44-45-3-12 3-22 16-29 12-7 21-8 21-2 0 5-7 12-16 15-9 4-13 13-10 24 4 13-6 24-39 45-43 25-65 33-65 23z"/><path d="m3729 2683c-13-17-13-17 6-3 11 8 22 16 24 17 2 2 0 3-6 3s-17-8-24-17z"/><path d="m3267 2679c7-9 10-19 6-23s1-4 10 0c10 3 17 7 15 8s-12 8-23 16c-18 14-19 13-8-1z"/><path d="m3170 2677c0-3 12-12 26-22 15-9 23-12 20-6-7 11-46 35-46 28z"/><path d="m3530 2659c43-34 66-42 32-10-18 17-38 31-45 31-6 0-1-9 13-21z"/><path d="m4500 2661c0-10 30-24 37-17 3 2-5 9-16 16-12 6-21 7-21 1z"/><path d="m4635 2659c-4-6-5-12-2-15 2-3 7 2 10 11 7 17 1 20-8 4z"/><path d="m3320 2646c0-3 9-10 20-16s20-8 20-6c0 3-9 10-20 16s-20 8-20 6z"/><path d="m3643 2629c9-5 17-19 17-29 0-28 46-56 65-40 10 9 15 9 15 1 0-6 6-11 14-11 7 0 20-8 27-17 12-15 12-16-3-10-23 8-23 1 2-25 15-17 20-18 20-7 0 29 42 13 72-27 38-51 66-65 114-57 34 6 36 8 15 13-47 11-34 27 19 22 47-4 50-3 50 18s-3 22-37 16c-21-3-54-6-73-7-19 0-29-3-22-6 6-2 10-9 6-14-3-5 0-9 5-9 6 0 11-4 11-10 0-5-5-10-11-10-16 0-39 26-39 45 0 12-6 15-20 10-14-4-20-2-20 9 0 17-38 42-57 38-7-2-13 1-13 6s-19 22-41 37c-23 15-38 22-35 16 10-16-7-13-30 5-16 13-16 15-1 10 9-3 17-4 17-2 0 6-70 46-78 46-4 0 1-5 11-11zm417-169c0-5-10-10-22-9-22 0-22 1-3 9 11 5 21 9 23 9 1 1 2-3 2-9z"/><path d="m3765 2620c-3-5-2-10 4-10 5 0 13 5 16 10 3 6 2 10-4 10-5 0-13-4-16-10z"/><path d="m3280 2601c14-11 30-21 35-21 11 0-7 14-40 31-13 7-12 3 5-10z"/><path d="m3875 2610c-3-5-1-10 4-10 6 0 11 5 11 10 0 6-2 10-4 10-3 0-8-4-11-10z"/><path d="m3400 2596c0-3 9-10 20-16s20-8 20-6c0 3-9 10-20 16s-20 8-20 6z"/><path d="m3265 2580c3-6 21-17 38-26l32-15-30 25c-30 26-51 34-40 16z"/><path d="m3920 2560c-9-6-10-10-3-10 6 0 15 5 18 10 8 12 4 12-15 0z"/><path d="m4310 2560c8-5 20-10 25-10 6 0 3 5-5 10s-19 10-25 10c-5 0-3-5 5-10z"/><path d="m3430 2507c0-7 95-67 105-67 5 0 5 4 0 9-16 14-105 63-105 58z"/><path d="m4524 2487c-8-21 2-35 16-21 5 5 6 15 0 24-8 12-10 12-16-3z"/><path d="m4627 2473c-13-12-7-25 6-14 8 6 18 7 22 3 5-4 5-1 1 6-8 13-19 16-29 5z"/><path d="m4069 2440c-16-17-14-18 53-14 75 4 107 14 45 14-20 0-37 5-37 10 0 17-44 10-61-10z"/><path d="m3675 2411c-3-5 0-13 6-17 8-5 9-3 4 6-6 10-4 12 9 7 10-4 15-3 11 3-8 13-22 13-30 1z"/><path d="m2875 2010c-3-5-2-10 4-10 5 0 13 5 16 10 3 6 2 10-4 10-5 0-13-4-16-10z"/><path d="m3357 2007c-4-11 0-13 15-9 18 4 19 3 9-17-8-14-8-21-1-21 5 0 10 7 10 15s7 15 15 15 15-4 15-10c0-5-5-10-12-10-6 0-9-3-5-6 3-3-7-29-23-58l-29-51 37-1c32-1 33 1 14 9-12 6-22 14-22 19 0 11 13 10 25-1 6-5 19-5 30-1 11 5 15 9 8 9-19 1-3 31 16 31 14 0 14 2 1 10-23 15-40 12-34-5 5-11 2-13-10-9-12 5-13 10-5 25 11 21 24 24 34 9 3-5 21-10 38-10 25 0 33 5 34 18 1 15-12 22-60 34-34 8-69 18-78 22-10 5-19 2-22-7zm131-37c6 0 12-5 12-11 0-13-50-3-65 13-7 8-2 9 15 4 14-3 31-6 38-6zm-68-70c0-5-4-10-9-10-6 0-13 5-16 10-3 6 1 10 9 10 9 0 16-4 16-10z"/><path d="m3278 1983c7-3 16-2 19 1 4 3-2 6-13 5-11 0-14-3-6-6z"/><path d="m3101 1956c-8-9-8-16-2-20s15 3 21 14c12 23-2 27-19 6z"/><path d="m3023 1948c1-8-7-12-18-11s-23-4-27-10c-5-8-8-8-8 3-1 20-29-30-30-52 0-9-8-22-17-27-10-6-13-11-7-11 12 0 8-32-16-125-19-79-8-68 15 13 23 82 39 112 56 112 5 0 9-8 10-17 0-14 2-15 6-3 3 8 12 18 19 23 7 4 11 14 8 21-5 14 14 25 56 32 50 8 58 10 71 20 8 6 25 9 39 8 43-3 47 11 5 16-46 7-67 2-59-12 4-7-5-8-26-3-23 5-30 4-26-4 11-17-10-13-24 4-10 12-9 15 4 15 10 0 14 5 11 10-9 14-45 12-42-2zm-17-44c-1-8-9-20-17-25-12-7-12-9 1-9 10 0 11-3 3-11-14-14-43-5-43 13 0 10 2 10 8 1 5-8 12-2 21 18 14 31 31 40 27 13z"/><path d="m3316 1925c-2-7 2-16 10-19 21-8 21-8 27 8 3 8-2 16-13 19-10 3-21-1-24-8z"/><path d="m3238 1923c6-2 18-2 25 0 6 3 1 5-13 5s-19-2-12-5z"/><path d="m3595 1911c-6-11 13-26 22-17 4 3 0 6-8 6-11 0-11 2 1 10 9 6 10 10 3 10-6 0-14-4-18-9z"/><path d="m2763 1904c4-7-2-14-13-17-16-4-20-13-19-44 1-22 4-29 6-16 2 12 12 25 22 28 18 5 22 38 6 52-4 5-5 3-2-3zm-3-34c0-5-5-10-11-10-5 0-7 5-4 10 3 6 8 10 11 10 2 0 4-4 4-10z"/><path d="m3141 1892c-17-31-13-40 5-14 9 13 14 26 11 29-3 2-10-4-16-15z"/><path d="m3180 1900c0-5 5-10 10-10 6 0 10 5 10 10 0 6-4 10-10 10-5 0-10-4-10-10z"/><path d="m3630 1894c0-8 5-12 10-9 6 3 10 10 10 16 0 5-4 9-10 9-5 0-10-7-10-16z"/><path d="m2821 1884c0-11 3-14 6-6 3 7 2 16-1 19-3 4-6-2-5-13z"/><path d="m3220 1889c0-5 8-9 18-10 9 0 29-3 45-5 18-3 27 0 27 8s-16 14-45 15c-25 1-45-3-45-8z"/><path d="m3466 1884c-5-12-2-15 10-10 8 3 23 6 32 7 14 0 13 2-3 9-29 12-32 12-39-6z"/><path d="m3536 1885c-9-26-7-32 5-12 6 10 9 21 6 23-2 3-7-2-11-11z"/><path d="m2841 1874c0-11 3-14 6-6 3 7 2 16-1 19-3 4-6-2-5-13z"/><path d="m3327 1883c-4-3-7-11-7-17s5-5 12 2c6 6 9 14 7 17-3 3-9 2-12-2z"/><path d="m4204 1875c11-8 36-15 55-14 32 1 33 2 11 8-14 4-38 11-55 15-28 6-29 5-11-9z"/><path d="m3846 1865c-4-13-10-14-26-5-28 15-73-7-75-37-1-18 5-22 42-25 50-4 84 9 62 23-11 6-10 9 4 15 26 9 33-3 14-24-9-10-13-23-8-30 6-9 12-3 21 20 18 42 26 48 74 48 22 0 36 3 33 7-4 3-35 6-70 5-44-1-56 1-42 8 19 8 19 9-1 9-12 1-25-6-28-14zm-19-35c-1-11-7-20-15-20-7 0-10 5-7 10 3 6 2 10-4 10-5 0-11-5-13-12-2-6-9-8-16-4-20 12-1 36 28 36 23 0 28-4 27-20z"/><path d="m3045 1859c-4-6-5-12-2-15 2-3 7 2 10 11 7 17 1 20-8 4z"/><path d="m3198 1843c7-3 16-2 19 1 4 3-2 6-13 5-11 0-14-3-6-6z"/><path d="m3597 1830c-9-11-16-20-14-20 21-5 128-2 133 3 4 4-18 7-49 7-46 0-55 3-51 15 8 21 2 19-19-5z"/><path d="m3645 1840c-3-5-2-10 4-10 5 0 13 5 16 10 3 6 2 10-4 10-5 0-13-4-16-10z"/><path d="m4018 1843c6-2 18-2 25 0 6 3 1 5-13 5s-19-2-12-5z"/><path d="m4078 1843c6-2 18-2 25 0 6 3 1 5-13 5s-19-2-12-5z"/><path d="m2686 1825c-3-8-1-15 4-15 6 0 10 7 10 15s-2 15-4 15-6-7-10-15z"/><path d="m3418 1822c13-9 131-7 140 2 3 4-30 6-74 6s-73-4-66-8z"/><path d="m2708 1787c-16-6-28-15-28-19 0-5 14-2 30 7 17 9 30 18 30 20 0 3-1 5-2 4-2-1-15-6-30-12z"/><path d="m3626 1784c-4-9-4-19-1-22 2-3 7 3 11 12s4 19 1 22c-2 3-7-3-11-12z"/><path d="m2713 1763c-18-9-33-20-33-25s18 1 40 12 40 23 40 25c0 8-13 5-47-12z"/><path d="m3774 1769c-3-5 3-9 13-10 35-1 56-8 63-19 5-8 10-9 14-2 8 13 1 17-46 30-23 6-40 7-44 1z"/><path d="m4798 1773c23-2 59-2 80 0 20 2 1 4-43 4s-61-2-37-4z"/><path d="m2628 1727c-3-19-2-25 4-19s8 18 6 28c-3 14-5 12-10-9z"/><path d="m3606 1735c-9-26-7-32 5-12 6 10 9 21 6 23-2 3-7-2-11-11z"/><path d="m2776 1721c-3-5 8-8 24-7 17 0 30 4 30 8 0 11-48 10-54-1z"/><path d="m2676 1682c-2-4 11-8 30-8s34 3 34 8c0 10-57 11-64 0z"/><path d="m2770 1680c0-5 11-10 25-10s25 5 25 10c0 6-11 10-25 10s-25-4-25-10z"/><path d="m3576 1665c-9-26-7-32 5-12 6 10 9 21 6 23-2 3-7-2-11-11z"/><path d="m2766 1644c-4-9-4-19-1-22 2-3 7 3 11 12s4 19 1 22c-2 3-7-3-11-12z"/><path d="m2580 1629c0-5 5-7 10-4 6 3 10 8 10 11 0 2-4 4-10 4-5 0-10-5-10-11z"/><path d="m5253 1614c-27-30-28-36-8-74 18-34 40-40 78-22 54 27 61 88 12 110-39 18-58 14-82-14z"/><path d="m2530 1594c0-9-6-14-13-11-8 3-20 1-28-4-10-6-7-9 14-9h35c4 0 8 9 8 20 1 11-3 20-7 20-5 0-9-7-9-16z"/><path d="m2572 1585c-1-14 3-25 8-25 6 0 10 11 10 25s-4 25-8 25-9-11-10-25z"/><path d="m2388 1583c7-3 16-2 19 1 4 3-2 6-13 5-11 0-14-3-6-6z"/><path d="m3527 1563c-4-3-7-11-7-17s5-5 12 2c6 6 9 14 7 17-3 3-9 2-12-2z"/><path d="m2262 1532c-7-5 16-7 50-5 91 6 103 11 28 12-36 0-71-3-78-7z"/><path d="m2463 1533c15-2 39-2 55 0 15 2 2 4-28 4s-43-2-27-4z"/><path d="m4918 1203c6-2 18-2 25 0 6 3 1 5-13 5s-19-2-12-5z"/><path d="m5470 1141c14-4 70-10 125-13l100-6-85 13c-96 15-182 19-140 6z"/><path d="m3956 1108c2-3-2-9-8-12-7-3 7-4 31-2 60 6 75 24 18 22-25 0-43-4-41-8z"/><path d="m4115 1110c-28-7-27-8 13-9 27-1 41 3 37 9-7 11-7 11-50 0z"/><path d="m5565 1109c51-10 92-10 50 1-16 4-43 8-60 8-25 0-24-2 10-9z"/><path d="m4048 1093c6-2 18-2 25 0 6 3 1 5-13 5s-19-2-12-5z"/><path d="m3940 1065c-30-7-44-13-30-14 40-1 100 11 100 20 0 5-3 8-7 8-5-1-33-7-63-14z"/><path d="m4123 1073c9-2 25-2 35 0 9 3 1 5-18 5s-27-2-17-5z"/><path d="m4208 1073c18-2 45-2 60 0s0 4-33 4-45-2-27-4z"/><path d="m3760 1054c-25-7-62-13-82-13-21-1-38-6-38-12s8-8 18-5c9 3 64 0 122-7s116-10 130-6l25 7-25 2c-14 1-47 8-75 14-48 12-49 13-25 24 33 14 6 13-50-4z"/><path d="m3595 1050c-13-6-15-9-5-9 8 0 22 4 30 9 18 12 2 12-25 0z"/><path d="m4960 1020c-11-11-20-32-20-48 0-23-8-31-48-49-26-12-57-20-69-17-11 3-27-1-36-11-15-15-18-15-39 4-26 25-46 26-76 5-20-14-22-23-20-72 3-41 8-57 18-58 147-7 259-18 254-25-3-5-19-9-35-9-37 0-35-24 2-28 81-8 126-40 61-43-21-1-23-2-7-6 11-3 22-9 25-13 7-11 100-29 117-23 7 3 13-2 13-11s5-17 10-17c6-1 15-3 20-4 6-1 22-3 38-4 19-1 23-4 13-10s-1-11 28-16c22-4 41-11 41-16s25-9 55-9c40 0 55-4 55-14s12-12 51-8c28 3 54 1 58-4 10-15 60-34 90-34 15 0 38-9 51-20s37-20 55-20c28 0 33 4 39 30 3 17 10 30 16 30 16 0 24-31 10-40-7-4 13-10 47-13 32-2 62-1 68 4 5 6 2 9-8 9-18 0-23 15-8 25 5 3 21-5 34-17 43-41 69-57 84-51 7 3 12 8 9 10-3 3 3 14 13 24 15 16 24 18 65 10 39-7 46-6 42 6-4 11-1 13 14 8 14-5 20-2 20 9 0 9-7 16-15 16-10 0-15 10-15 33 0 17-7 41-15 51-8 11-15 28-15 38 0 26-44 68-70 68-12 0-33 9-46 19-24 19-64 18-64-2 0-5-11 2-25 17-25 27-63 34-83 14-9-9-18-8-38 2-28 16-70 15-89 0-8-7-18-4-31 11-15 17-27 20-59 17-27-4-45 0-54 9-9 10-24 13-50 8-28-5-41-2-51 9-15 19-56 21-66 4-5-8-11-6-19 5-17 24-63 39-84 28-13-7-22-5-34 9-9 11-29 22-44 25-15 4-45 16-66 27s-44 17-51 15c-9-4-13 1-12 11 2 9 9 17 17 17 15 0 24 62 12 81-16 23-62 25-83 4zm-182-225c-2-2-14-2-26 2-18 4-20 8-11 19s14 11 26-2c9-8 14-17 11-19zm227 15c3-5 1-10-4-10-6 0-11 5-11 10 0 6 2 10 4 10 3 0 8-4 11-10zm-150-20c3-5-1-10-10-10s-13 5-10 10c3 6 8 10 10 10s7-4 10-10zm225-10c0-5-7-10-15-10s-15 5-15 10c0 6 7 10 15 10s15-4 15-10zm87-38c8-5 3-11-17-19-24-9-32-8-46 8-16 18-16 19 17 19 19 0 39-4 46-8zm102-36c7-8 28-14 48-14 19 0 38-4 42-9 8-13 55-22 159-28 137-9 173-15 179-31 4-12 20-15 64-13 32 1 62-1 66-4 3-4 17-7 30-7 14 0 21-4 18-10-4-6 5-10 20-10s24 4 20 10c-10 17 1 11 19-9 17-19 17-19-3-14-12 3-31-3-48-17-24-19-28-20-31-6-8 40-96 55-115 20-8-14-11-13-24 5-17 25-68 28-93 6-16-14-19-13-35 11-14 21-23 25-48 22-18-3-39-8-47-12-10-4-18 1-25 16-8 19-18 23-50 22-22 0-49-4-59-9-14-6-17-5-12 3 4 6 2 21-4 32-12 22-72 28-99 11-11-7-18-3-26 12-7 12-10 25-8 30 7 12 50 8 62-7zm131-6c0-13-6-20-17-19-11 0-13 3-5 6 6 2 12 11 12 19s2 14 5 14 5-9 5-20zm105-18c-3-3-11 0-18 7-9 10-8 11 6 5 10-3 15-9 12-12zm-160-122c3-5-1-10-9-10-9 0-16 5-16 10 0 6 4 10 9 10 6 0 13-4 16-10zm135-20c0-5-4-10-10-10-5 0-10 5-10 10 0 6 5 10 10 10 6 0 10-4 10-10zm120-36c0-8-5-12-10-9-6 4-8 11-5 16 9 14 15 11 15-7z"/><path d="m3560 1012c0-4 16-6 35-4s35 6 35 8-16 4-35 4-35-4-35-8z"/><path d="m3680 999c25-4 61-7 80-7 29 1 26 2-15 8-69 11-126 10-65-1z"/><path d="m3948 1003c6-2 18-2 25 0 6 3 1 5-13 5s-19-2-12-5z"/><path d="m3485 990c-18-8-17-9 7-9 15-1 30 4 33 9 7 12-12 12-40 0z"/><path d="m3878 983c7-3 16-2 19 1 4 3-2 6-13 5-11 0-14-3-6-6z"/><path d="m4073 983c9-2 23-2 30 0 6 3-1 5-18 5-16 0-22-2-12-5z"/><path d="m4220 981c53-17 85-22 75-13-5 6-30 13-55 16-30 4-37 3-20-3z"/><path d="m4023 973c4-6 23-13 44-16s46-8 56-12c9-4 17-3 17 3 0 5-17 12-37 16-21 3-49 9-62 13-15 4-22 2-18-4z"/><path d="m3670 959c100-19 239-34 230-25-5 5-58 15-117 22-122 14-181 16-113 3z"/><path d="m3538 933c7-3 16-2 19 1 4 3-2 6-13 5-11 0-14-3-6-6z"/><path d="m4108 863c7-3 16-2 19 1 4 3-2 6-13 5-11 0-14-3-6-6z"/></g></svg>